<svg width="173" height="256" viewBox="0 0 173 256" fill="none" xmlns="http://www.w3.org/2000/svg">
<path fill-rule="evenodd" clip-rule="evenodd" d="M15.6934 163.391C16.3572 161.567 15.3879 159.749 14.8503 157.984C12.9402 151.866 10.8548 145.748 7.90421 140.042C6.78661 138.134 8.62526 135.792 10.7559 136.33C14.4034 136.842 18.1646 136.435 21.8185 136.209C23.1548 132.75 26.7212 131.315 29.5281 129.323C32.7134 127.333 35.8118 125.048 39.1245 123.304C39.3087 121.656 41.3056 121.248 42.5267 122.427C45.8806 120.339 49.9025 120.727 53.4977 119.359C56.2295 114.941 56.4344 110.295 57.1577 106.032C57.473 104.174 57.138 102.381 58.4069 100.725C62.6692 94.7263 79.5106 92.1255 85.72 95.6802C89.0625 93.5943 89.1429 97.372 89.6739 99.7035C90.2639 100.87 90.5832 102.191 90.4845 103.583C94.0748 111.087 102.289 114.479 109.645 117.227C110.568 116.338 111.887 116.451 112.765 117.186C119.141 118.573 125.329 121.011 130.671 124.818C136.74 126.594 141.015 131.534 144.105 136.83C144.446 137.388 144.526 137.957 144.427 138.48C153.932 152.421 158.468 169.111 159.105 185.968C165.217 189.639 156.2 222.612 154.101 229.458C154.099 229.457 154.097 229.456 154.094 229.455C152.733 231.868 151.186 238.752 147.778 238.219C145.44 240.864 141.715 240.344 138.542 240.548C139.059 242.531 138.805 244.8 138.19 246.76C137.462 249.093 133.893 249.172 133.387 246.629C101.793 252.771 69.3761 247.87 37.4272 248.792C28.1897 248.857 18.9531 249.144 9.73779 249.802C8.44019 249.895 7.12463 248.568 7.21294 247.275C9.1942 226.183 11.0548 198.437 13.2704 177.551C13.7958 172.788 14.2114 167.973 15.6934 163.391Z" fill="white"/>
<path d="M134.317 125.539L120.317 119.538L113.317 117.037L114.317 120.538L113.317 127.54C110.484 134.708 99.0169 149.045 75.8169 149.045C52.6169 149.045 46.4836 130.04 46.3169 120.538L34.3169 126.539L21.8169 136.542H33.3169L37.3169 138.042L48.8169 163.048L62.3169 166.549L74.8169 177.552L78.8169 182.553L77.3169 197.556L71.8169 201.057L57.8169 197.556L53.8169 192.555L45.3169 190.055L40.3169 186.054L30.3169 184.553L15.8169 159.547L8.31689 247.068C8.48357 247.902 13.4169 249.369 31.8169 248.569C71.8169 251.569 130.317 247.568 134.317 247.068C134.317 248.669 136.65 248.735 137.817 248.569L136.817 240.067L141.817 241.067L150.817 239.066L156.317 229.564L160.817 211.56L162.817 187.554L156.317 159.547L147.817 140.543L134.317 125.539Z" fill="#FFD400"/>
<path fill-rule="evenodd" clip-rule="evenodd" d="M89.1528 96.982C89.0621 96.7347 88.6928 96.7674 88.6859 97.0452C88.5403 102.976 90.0158 110.223 94.7583 114.229C97.1928 116.285 100.411 117.226 103.367 118.307L103.701 118.43L108.923 120.377C110.308 120.893 111.802 121.687 113.025 120.958C112.035 123.415 111.204 125.939 109.999 128.306C108.498 131.253 106.683 133.95 104.462 136.402C95.6638 146.118 81.7392 149.082 69.2433 146.235C62.8087 144.769 56.5474 141.991 52.1575 136.923C48.8211 133.072 46.9043 127.902 46.4526 122.803C46.5847 122.824 46.723 122.823 46.8652 122.792C48.4463 122.447 50.0424 121.599 51.4336 120.767L51.5676 120.687C52.9062 119.88 54.3014 118.956 55.2621 117.704C56.2161 116.459 57.2174 112.401 57.2174 112.401C57.4901 110.876 57.746 107.837 57.7022 106.296C57.6982 106.15 57.0532 106.064 56.9843 106.216C56.3883 107.524 56.1956 110.4 55.7356 111.762L55.6428 112.034C55.1516 113.457 54.7303 115.189 53.7118 116.339C51.7996 118.498 48.9145 119.413 46.3394 120.496C46.1545 118.055 42.2587 118.112 42.3082 120.657C42.3109 120.795 42.3171 120.933 42.3219 121.07C42.0147 121.239 41.7192 121.433 41.443 121.619L41.1735 121.802C40.1535 122.496 39.1256 123.156 38.0395 123.745C35.9368 124.886 33.7106 125.79 31.5561 126.825C29.3765 127.873 27.338 129.12 25.4347 130.614C24.5407 131.315 23.6835 132.062 22.8706 132.856L22.6499 133.074C21.8761 133.845 20.8692 134.707 20.4283 135.721C20.3311 135.944 19.8442 136.464 19.58 136.481C15.4865 136.75 11.4017 137.129 7.33389 137.697C6.28072 137.845 5.86443 138.388 6.25371 139.266C7.59146 142.284 12.8285 154.339 14.2212 157.574C14.0585 159.95 14.2782 162.748 14.1316 165.125C13.9172 168.595 13.6364 172.062 13.2999 175.522C12.0957 187.896 10.2701 200.211 8.6205 212.532C7.79488 218.698 7.04213 224.873 6.2991 231.05C5.92389 234.171 5.60551 237.295 5.36044 240.43C5.25836 241.736 5.16573 243.043 5.08409 244.351L5.01373 245.511C4.91635 246.97 4.69334 248.364 5.59601 249.617C6.00523 250.185 6.93988 250.505 7.47798 249.86C8.15445 249.048 8.40587 248.442 8.4705 247.376C8.51994 246.56 8.53178 245.74 8.56897 244.923C8.64925 243.152 8.75023 241.382 8.86853 239.614C9.10452 236.078 9.37389 232.542 9.68593 229.012C10.7797 216.634 12.8583 204.349 14.2415 192.002C14.9387 185.777 15.4339 179.54 15.6961 173.281C15.8273 170.155 15.8748 167.03 15.844 163.901C15.8323 162.732 15.777 161.569 15.6969 160.409C17.769 165.119 19.9474 169.784 22.2249 174.386L22.7647 175.477C24.208 178.386 25.6901 181.306 27.4247 184.049L27.7228 184.516C28.4256 185.63 29.3856 187.387 30.6671 187.738C31.5597 187.983 32.6505 187.811 33.5657 187.793C34.474 187.776 35.3833 187.772 36.2909 187.735C37.309 187.694 38.2804 187.561 39.2642 187.295C39.4278 187.251 39.5824 187.203 39.7233 187.142C40.7146 188.766 42.3988 190.002 44.1209 190.722C45.5002 191.299 46.9458 191.694 48.3939 192.061L48.905 192.189C50.4574 192.576 52.2333 192.76 53.1088 194.26L53.3122 194.608C53.9631 195.714 54.5876 196.686 55.6649 197.479C56.8246 198.334 58.1985 198.871 59.5671 199.289C60.9684 199.717 62.4024 200.044 63.8253 200.395L64.213 200.492C65.1523 200.727 66.1001 200.943 67.0339 201.199C67.4321 201.308 67.8375 201.42 68.2284 201.555C68.686 201.712 69.0185 201.958 69.3796 202.225C69.7041 203.359 71.0911 203.975 72.2315 203.896C72.8304 203.855 73.3677 203.652 73.8566 203.353C74.7099 204.08 75.6494 204.731 76.5192 205.405C77.7371 206.348 78.9599 207.284 80.1895 208.211C82.7247 210.124 85.2792 212.01 87.8602 213.86C92.4416 217.143 97.122 220.276 101.882 223.292C103.867 224.55 105.866 225.806 107.883 227.032L107.668 227.112L107.241 227.273C106.231 227.65 105.106 228.26 104.911 229.438C104.756 230.373 105.277 231.017 106.2 231.132C107.296 231.267 108.149 230.492 108.832 229.752C109.133 229.426 109.47 229.123 109.759 228.787C109.876 228.65 109.967 228.492 110.046 228.326C112.038 229.5 114.05 230.635 116.095 231.696L116.607 231.959C121.676 234.554 126.611 237.396 131.724 239.916C133.058 240.573 134.684 241.285 136.379 241.77C135.929 243.514 135.936 245.43 135.924 247.2C135.914 248.926 138.654 248.917 138.596 247.2L138.568 246.371C138.518 244.976 138.437 243.529 138.106 242.172C143.1 243.001 148.089 241.2 149.018 240.659C150.043 240.062 150.974 239.108 151.749 238.222C153.406 236.326 154.556 234.054 155.577 231.768C157.762 226.873 159.311 221.641 160.443 216.408C164.617 197.114 162.822 176.464 156.043 157.969C154.35 153.348 152.35 148.829 150.059 144.473L149.775 143.935C147.488 139.628 144.947 135.337 141.719 131.672C138.357 127.854 134.21 124.885 129.694 122.58C127.49 121.455 125.223 120.481 122.905 119.617C122.533 119.478 122.158 119.354 121.783 119.235C119.367 117.694 116.436 116.22 113.504 116.278C113.305 116.282 113.143 116.358 113.023 116.471C112.882 116.496 112.74 116.526 112.599 116.567C112.286 116.658 111.956 117.001 112.001 117.353L112.016 117.47C112.025 117.527 112.035 117.582 112.053 117.636C111.948 117.652 111.845 117.677 111.744 117.711C108.939 116.919 106.179 115.706 103.441 114.728L102.818 114.508C100.525 113.704 98.1725 112.916 96.2917 111.325C94.4205 109.742 93.0135 107.691 91.9962 105.475C90.743 102.744 90.1818 99.7856 89.1528 96.982ZM32.9852 241.014C32.4297 240.6 31.7729 241.08 31.565 241.592C30.8826 243.272 31.2198 245.882 32.1817 247.367C33.1785 248.905 35.5643 248.298 35.622 246.434C35.6822 244.491 34.5532 242.182 32.9852 241.014ZM27.2475 194.635C27.1977 194.417 26.8588 194.419 26.8081 194.635C26.3456 196.606 26.3564 198.728 26.2206 200.749L26.2049 200.973C26.042 203.202 25.9051 205.436 25.8075 207.668C25.6159 212.06 25.3869 216.452 25.1302 220.841C25.0028 223.017 24.8663 225.193 24.7207 227.368C24.2648 227.114 23.7952 226.891 23.3084 226.693C22.5791 226.399 21.869 226.365 21.0854 226.373C20.1311 226.383 19.4126 227.222 19.539 228.158C19.6767 229.177 20.5731 229.613 21.504 229.468C22.535 229.306 23.5704 229.056 24.6113 228.953C24.4953 230.634 24.3755 232.316 24.2486 233.996C24.0802 236.221 23.8607 238.444 23.7065 240.669C23.6917 240.882 23.6758 241.094 23.6595 241.308C23.0388 240.985 22.3797 240.819 21.6326 240.616L21.4383 240.561C20.3537 240.249 19.1933 239.819 18.1894 240.548C17.5146 241.039 17.3798 241.846 17.9388 242.494C18.7864 243.475 20.0405 243.285 21.2113 243.235L21.8412 243.212C22.4348 243.189 22.9824 243.151 23.5311 243.001C23.4303 244.451 23.3773 245.906 23.555 247.335C23.6511 248.107 24.6671 248.31 24.936 247.522C25.6385 245.463 25.7836 243.243 26.0408 241.086C26.2808 239.072 26.4268 237.043 26.584 235.02L26.6317 234.414C26.9853 229.963 27.2682 225.51 27.4748 221.05C27.6817 216.59 27.8059 212.132 27.8553 207.668C27.8778 205.642 27.8442 203.607 27.7649 201.581L27.7398 200.973C27.6485 198.889 27.7123 196.677 27.2475 194.635ZM120.084 241.342C120.057 241.058 119.829 240.704 119.49 240.748C119.177 240.789 118.855 240.769 118.546 240.821C118.138 240.888 117.81 241.13 117.43 241.281C116.814 241.528 116.142 241.656 115.509 241.857C114.322 242.236 113.675 243.487 114.166 244.655C114.683 245.882 115.982 246.161 117.105 245.646C117.99 245.24 118.649 244.591 119.244 243.84L119.413 243.626C119.669 243.303 119.96 242.943 120.068 242.552C120.172 242.171 120.121 241.73 120.084 241.342ZM62.4082 235.571C60.9296 235.363 59.6666 235.869 58.2984 236.345L58.1873 236.384C56.7948 236.865 54.763 237.198 54.0494 238.624C53.6188 239.484 53.9533 240.626 54.9665 240.881C56.5712 241.283 58.0101 240.11 59.337 239.32L59.4067 239.278C60.6874 238.528 62.0093 237.897 62.8271 236.602C63.0454 236.256 62.8561 235.634 62.4082 235.571ZM114.025 117.907C114.617 118.04 115.21 118.157 115.801 118.27C118.052 119.477 120.237 120.73 122.561 121.806C125.027 122.947 127.484 124.126 129.826 125.506C134.559 128.296 138.46 131.923 141.683 136.368C147.251 144.047 151.393 152.903 154.358 161.889C155.119 164.197 155.801 166.532 156.404 168.886C155.338 167.899 154.076 167.293 152.66 166.773C152.061 166.553 151.314 166.926 151.01 167.445C150.873 167.679 150.796 167.91 150.81 168.183C150.842 168.788 151.235 169.474 151.883 169.594C153.395 169.872 154.866 170.415 156.323 170.893C156.544 170.966 156.734 170.938 156.886 170.853C158.333 176.987 159.239 183.248 159.56 189.547C159.831 194.879 159.664 200.254 159.073 205.579C158.62 205.375 158.176 205.183 157.679 205.067C157.034 204.917 156.399 204.735 155.77 204.528C153.955 203.932 153.126 206.932 154.982 207.389C155.673 207.559 156.368 207.7 157.071 207.804C157.685 207.894 158.227 207.854 158.805 207.76C158.364 211.082 157.76 214.38 156.992 217.631L156.822 218.342C155.824 222.495 154.66 226.686 152.977 230.61C152.152 232.535 151.059 234.363 149.71 235.968C149.047 236.757 148.311 237.434 147.509 238.075C146.841 238.609 144.57 239.766 141.88 239.766C139.191 239.766 138.463 239.511 137.106 239.044C134.423 238.12 131.875 236.645 129.359 235.33L129.098 235.195C127.986 234.619 126.877 234.035 125.772 233.445C125.911 232.317 125.667 231.37 125.08 230.328C124.445 229.201 122.872 229.762 122.755 230.915L122.751 230.959C122.733 231.219 122.69 231.484 122.636 231.748C115.243 227.696 108.007 223.36 100.886 218.842C96.2996 215.931 91.7616 212.934 87.2899 209.849C85.0545 208.307 82.8385 206.737 80.6444 205.136C79.4951 204.298 78.3511 203.453 77.2124 202.6C76.7381 202.245 76.2729 201.872 75.7975 201.515C75.9131 201.37 76.0257 201.226 76.1347 201.083C77.9098 198.758 79.0614 195.986 79.6352 193.126C79.9817 191.401 80.149 189.609 80.1999 187.85L80.2223 187.085C80.2574 185.796 80.2666 184.448 80.0292 183.199C80.3523 183.377 80.6823 183.551 81.0112 183.737C82.1916 184.406 83.373 185.074 84.5563 185.738C86.9258 187.068 89.3024 188.383 91.7092 189.645C96.008 191.898 100.349 194.042 104.808 195.963L106.977 196.899C110.742 198.519 114.538 200.111 118.452 201.315C120.66 201.994 122.885 202.575 125.125 203.093L124.219 204.155C123.605 204.875 123.594 205.907 124.379 206.513C125.15 207.109 126.186 206.861 126.7 206.07L127.636 204.628C127.837 204.32 127.95 204.031 128.015 203.727C129.047 203.943 130.081 204.15 131.118 204.351L133.079 204.725C135.879 205.266 138.593 206.336 141.096 207.707C141.966 208.183 142.208 207.258 141.286 206.613C138.591 204.727 135.447 203.661 132.203 202.765L132.044 202.721C130.854 202.395 129.666 202.055 128.481 201.703C128.611 201.231 128.686 200.742 128.671 200.202C128.638 198.999 128.531 197.792 128.468 196.59C128.334 194.068 128.163 191.554 127.962 189.036C127.886 188.066 127.799 187.093 127.701 186.121C128.336 185.78 128.885 185.328 129.593 185.105L129.713 185.07C130.471 184.866 130.215 183.888 129.542 183.805C128.932 183.729 128.325 183.764 127.724 183.893C127.631 183.913 127.542 183.936 127.458 183.961C127.348 183.061 127.225 182.164 127.086 181.271C126.718 178.912 126.457 176.427 125.691 174.16C125.634 173.992 125.385 173.932 125.293 174.108C124.178 176.231 124.139 178.835 124.013 181.198L123.998 181.481C123.85 184.059 123.841 186.663 123.889 189.245C123.938 191.907 124.029 194.561 124.148 197.22C124.196 198.29 124.194 199.401 124.377 200.425C117.741 198.266 111.223 195.683 104.975 192.624C100.568 190.466 96.1986 188.222 91.8792 185.893C89.715 184.727 87.5406 183.579 85.3787 182.408C84.6213 181.998 83.8644 181.586 83.1078 181.173L81.9731 180.554C80.9113 179.974 80.025 179.398 78.7882 179.357C78.4196 179.345 78.089 179.518 77.8542 179.779C77.1896 179.308 76.4214 179.018 75.6152 179.025C74.4017 177.347 73.1696 175.684 71.8885 174.057L70.942 172.852C69.3038 170.773 67.5686 168.663 65.4797 167.08C64.5473 166.375 63.5218 165.845 62.4524 165.407C62.704 165.346 62.9504 165.222 63.1699 165.018C64.1913 164.071 64.332 162.31 64.5395 160.988C64.7548 159.617 64.6716 158.389 64.459 157.022C64.3764 156.491 63.4971 156.38 63.2825 156.868C62.8302 157.897 62.3512 158.883 61.9395 159.923L61.8182 160.237C61.3764 161.408 60.4354 162.64 60.4975 163.911C60.5144 164.259 60.6311 164.562 60.8111 164.806C59.9134 164.508 59.0028 164.242 58.1062 163.965C55.2843 163.092 52.4516 162.244 49.5754 161.568C48.8098 161.387 48.0404 161.22 47.2678 161.067C46.863 159.144 46.2731 157.256 45.5776 155.403C46.2361 155.066 46.6625 154.5 47.2295 153.996C47.7602 153.525 48.1249 152.951 48.5776 152.41C48.9898 151.917 48.7582 151.028 48.0175 151.057L47.8077 151.065C47.0403 151.101 46.2971 151.18 45.6013 151.539L45.3534 151.667C45.0134 151.843 44.6412 152.046 44.3098 152.285C43.8765 151.287 43.4259 150.299 42.9705 149.321L42.3796 148.056C40.8474 144.764 39.3195 141.347 37.3958 138.282C36.5406 136.919 35.4025 136.068 33.769 135.936C32.0869 135.801 30.338 135.976 28.6536 136.036C26.7008 136.106 24.7487 136.189 22.7979 136.292C23.298 135.768 23.7543 135.184 24.2565 134.681C25.0901 133.847 25.9709 133.057 26.8967 132.326C28.729 130.88 30.7437 129.688 32.8363 128.662C34.9293 127.635 37.0838 126.741 39.0486 125.473C40.2919 124.67 41.4032 123.661 42.417 122.568C43.0553 129.458 46.38 135.858 51.3748 140.667C56.5627 145.662 63.7318 148.406 70.7451 149.573C77.8986 150.764 85.3646 150.327 92.2078 147.839C95.7361 146.556 99.1202 144.723 102.138 142.424C102.171 142.624 102.211 142.821 102.29 143.007C102.395 143.257 102.523 143.47 102.671 143.689L102.934 144.074C103.1 144.316 103.269 144.556 103.458 144.78C103.914 145.324 104.56 145.562 105.256 145.559C106.589 145.555 107.598 144.247 107.24 142.954C107.014 142.141 106.532 141.652 105.779 141.334C105.541 141.233 105.298 141.149 105.054 141.066L104.871 141.004C104.625 140.919 104.38 140.839 104.126 140.792C105.555 139.53 106.881 138.157 108.069 136.676C111.793 132.032 115.466 125.527 114.221 119.358C114.199 119.252 114.104 119.186 114.001 119.169C113.929 118.736 113.699 118.317 113.383 118.035C113.596 117.98 113.81 117.937 114.025 117.907ZM75.3546 224.558C74.6171 224.147 73.8553 225.122 74.4546 225.725L75.3495 226.621C76.18 227.456 76.9883 228.3 77.6993 229.252L77.8714 229.484C78.831 230.79 79.8543 232.304 81.4267 232.792C83.3285 233.383 85.1562 231.065 84.0548 229.371C83.0927 227.892 81.2401 227.333 79.6429 226.721C78.132 226.143 76.7672 225.343 75.3546 224.558ZM136.707 217.729C136.274 217.161 135.144 217.46 135.44 218.263C136.401 220.872 136.793 224.428 139.222 226.161C140.005 226.72 141.236 226.463 141.881 225.818C142.614 225.084 142.643 224.052 142.224 223.157C141.713 222.066 140.455 221.274 139.574 220.443L139.495 220.367C138.547 219.446 137.521 218.795 136.707 217.729ZM35.2166 220.731C34.4432 220.397 32.4274 219.748 31.83 220.516C31.8021 220.544 31.7782 220.575 31.759 220.609C31.6126 220.864 31.5909 221.223 31.759 221.476C32.4551 222.523 33.1801 223.304 34.1699 224.049L34.2809 224.132C35.3584 224.924 36.3706 225.855 37.6834 226.213C39.503 226.708 40.774 224.428 39.4961 223.097C38.4665 222.025 36.8948 221.468 35.5305 220.87L35.2166 220.731ZM108.291 205.827C108.595 205.277 107.973 204.601 107.41 204.946C105.803 205.928 103.932 206.665 102.127 207.195C101.397 207.409 100.738 208.15 100.792 208.949L100.801 209.07C100.822 209.353 100.861 209.633 101.04 209.868C101.669 210.691 102.568 211.007 103.528 210.521C105.668 209.436 107.133 207.921 108.291 205.827ZM61.3309 204.16C61.37 203.929 61.2008 203.75 60.9656 203.795C59.6078 204.052 58.3537 204.708 57.1878 205.462C56.5624 205.867 55.9592 206.311 55.3354 206.72C54.5647 207.225 54.2761 207.641 54.1622 208.567C54.087 209.178 54.6572 209.736 55.1801 209.905C56.6052 210.365 58.2381 208.856 59.2036 207.875L59.247 207.831C60.2577 206.8 61.0913 205.582 61.3309 204.16ZM20.5497 202.559C20.8592 201.722 19.7924 201.029 19.0948 201.44C18.438 201.826 17.7254 202.147 17.1057 202.59C16.5364 202.997 16.0172 203.48 15.4711 203.922L15.2013 204.135C14.1999 204.941 12.5469 206.933 13.9788 208.089C15.3415 209.189 17.1483 207.784 18.063 206.757L18.1268 206.684C18.6531 206.076 19.3019 205.415 19.6837 204.705C20.043 204.036 20.2868 203.268 20.5497 202.559ZM33.9886 137.818C35.6955 138.149 36.3912 140.257 37.1099 141.631C38.8062 144.874 40.3662 148.177 41.9329 151.483C42.4153 152.5 42.8849 153.525 43.3588 154.548C43.3877 154.628 43.4249 154.707 43.4686 154.785C44.4394 156.876 45.4391 158.954 46.6077 160.939C45.5382 160.739 44.4633 160.568 43.3843 160.434C43.4388 159.417 42.7431 158.057 42.3991 157.201L42.3705 157.129C41.9414 156.032 41.4916 154.304 40.3871 153.735C40.0191 153.546 39.6255 153.783 39.5972 154.189C39.5135 155.396 40.6934 156.777 41.2702 157.802C41.619 158.422 41.9589 159.044 42.2902 159.674C42.4144 159.909 42.5181 160.141 42.6455 160.348C42.0891 160.288 41.5319 160.234 40.9734 160.195L40.6093 160.17C38.5385 160.034 36.339 159.995 34.468 161.016C32.732 161.964 31.8447 163.987 32.7983 165.83C33.9865 168.125 36.6029 168.429 38.9036 168.615C41.7772 168.847 44.6574 169.266 47.5108 169.674C50.4622 170.097 53.2415 171.185 56.1489 171.745C56.4193 171.797 56.5877 171.443 56.3397 171.292C54.0463 169.895 51.2581 169.126 48.6941 168.343L48.4867 168.28C47.0959 167.852 45.7366 167.364 44.2979 167.122C42.9012 166.886 41.4958 166.696 40.0871 166.551L39.9503 166.538C38.3992 166.408 34.4423 166.452 34.6095 164.154C34.7202 162.634 37.1908 162.371 38.3186 162.353C43.4891 162.27 48.6969 163.643 53.6107 165.115L54.7077 165.444C56.7199 166.05 58.7349 166.673 60.7091 167.383C62.9465 168.188 64.7091 169.442 66.3386 171.159C68.1453 173.064 69.8953 175.011 71.7696 176.85C72.9512 178.01 74.1481 179.15 75.3546 180.279C75.6272 180.633 75.8452 181.017 75.9963 181.515C76.2515 182.357 76.1927 183.139 76.0964 184.004C75.8534 186.187 75.7998 188.393 75.4953 190.57C75.2131 192.587 74.8184 194.677 73.9816 196.548C73.6502 197.289 73.219 198.017 72.7279 198.667L72.3315 199.183C72.1587 199.407 71.9654 199.652 71.7625 199.882C71.4646 199.519 71.0336 199.282 70.5327 199.342C69.4681 199.467 68.6312 199.437 67.587 199.192C66.7786 199.003 65.9767 198.781 65.172 198.576C63.5919 198.172 61.997 197.805 60.433 197.342L60.1641 197.261C58.9986 196.904 57.8327 196.455 56.8626 195.702C55.7355 194.827 55.3888 193.565 54.5538 192.474C52.7712 190.143 48.9189 190.192 46.3106 189.553C44.0939 189.011 41.9608 188.155 40.4268 186.546L40.3372 186.45C40.4053 186.163 40.295 185.839 40.0283 185.69L39.9703 185.658C39.8663 185.599 39.7543 185.575 39.6445 185.578C39.5021 185.368 39.3648 185.152 39.2399 184.922C39.1372 184.733 38.8805 184.872 38.9141 185.059C38.9342 185.171 38.9621 185.28 38.9885 185.39C37.5025 185.007 35.8706 185.08 34.3619 185.081L32.4041 185.074C32.0652 185.07 31.5602 185.053 31.5153 185.033L31.4693 185.012C31.3472 184.959 31.5205 185.047 31.4352 184.934C31.3412 184.809 31.2491 184.682 31.1583 184.555C30.8338 184.101 30.5268 183.633 30.226 183.16C33.5046 183.996 36.901 184.516 40.2487 184.95C43.8403 185.415 47.4791 185.738 51.1028 185.742C52.1017 185.743 52.0926 184.234 51.1028 184.196C47.2657 184.049 43.4488 183.846 39.6375 183.354C37.6666 183.099 35.7039 182.78 33.7522 182.406C32.9987 182.262 32.247 182.109 31.4972 181.948L30.9352 181.825C30.5826 181.747 29.5862 181.635 29.1003 181.308C29.0048 181.144 28.9093 180.98 28.8147 180.816C28.8612 180.24 30.3248 180.317 30.6679 180.316C31.6408 180.315 32.6139 180.322 33.587 180.325C35.533 180.331 37.4788 180.314 39.425 180.298C43.3131 180.266 47.2161 180.131 51.1011 180.297C52.0442 180.337 52.5396 178.824 51.6075 178.425C47.4924 176.667 42.9244 176.285 38.5305 175.745C36.2198 175.461 33.9079 175.133 31.649 174.558L31.0906 174.416C29.6716 174.052 28.1046 173.608 26.9097 172.741C28.7057 172.014 30.9381 172.097 32.7998 171.994L32.9422 171.986C35.549 171.825 38.1605 171.743 40.7722 171.74C46.116 171.732 51.4615 171.922 56.7994 172.175C56.9334 172.181 56.961 171.97 56.8309 171.941C51.3445 170.744 45.7685 170.166 40.1538 170.078C37.539 170.036 34.9229 170.073 32.3102 170.189L31.3516 170.233C29.124 170.329 26.6522 170.355 24.7886 171.701C24.5044 171.906 24.3546 172.168 24.3312 172.445C21.8316 167.46 19.5231 162.37 17.2053 157.314C15.4034 153.383 13.6687 149.419 11.8011 145.518L11.1965 144.257C10.3869 142.573 9.55746 140.889 8.63651 139.266C12.0804 138.805 15.5435 138.485 19.0087 138.241C22.1662 138.017 32.4686 137.523 33.9886 137.818ZM35.5133 191.851C35.1206 191.632 34.5189 191.81 34.4221 192.295C34.3501 192.656 34.2271 193.056 34.2271 193.425C34.2271 193.868 34.3851 194.348 34.4695 194.781C34.6632 195.776 34.9017 196.584 35.4073 197.47C35.7235 198.025 36.3622 198.401 37.004 198.386C37.5123 198.375 37.9628 198.238 38.3116 197.845C38.7294 197.373 39.0163 196.679 38.7871 196.044C38.1867 194.381 37.083 192.723 35.5133 191.851ZM118.816 190.191C117.897 188.58 115.718 187.141 113.817 187.283C110.963 187.497 110.381 191.343 113.144 192.261C114.796 192.809 117.069 192.246 118.514 191.343C118.903 191.1 119.046 190.594 118.816 190.191ZM148.152 184.688C148.361 184.385 148.016 184.038 147.705 184.106C147.015 184.258 146.271 184.324 145.596 184.53C144.904 184.74 144.234 185.09 143.549 185.33C142.113 185.833 140.579 186.086 139.19 186.693C138.634 186.936 138.197 187.741 138.249 188.334L138.262 188.473C138.293 188.768 138.344 189.025 138.508 189.294C138.95 190.016 139.827 190.39 140.653 190.167C142.187 189.755 143.686 188.696 144.994 187.816L145.236 187.655C145.807 187.278 146.422 186.884 146.882 186.399C147.363 185.893 147.758 185.262 148.152 184.688ZM95.4204 178.831C95.597 178.194 94.8058 177.774 94.3446 178.204C93.4231 179.063 92.4595 179.859 91.5569 180.74L91.4963 180.8C90.85 181.45 89.9098 182.703 90.7503 183.544C91.8274 184.621 93.3271 183.022 93.905 182.189C94.6378 181.132 95.0775 180.067 95.4204 178.831ZM24.8981 173.569C26.2653 175.018 28.3716 175.685 30.2261 176.236C32.425 176.89 34.6906 177.281 36.9586 177.602C39.15 177.913 41.3246 178.19 43.4812 178.546C41.8498 178.567 40.2186 178.579 38.591 178.608C36.7139 178.642 34.8379 178.683 32.9614 178.737C31.5947 178.777 29.9912 178.589 28.6925 179.098C28.4584 179.189 28.2398 179.316 28.0488 179.47C26.957 177.528 25.9105 175.558 24.8981 173.569ZM109.224 160.02C107.797 159.566 106.455 158.965 104.942 159.121C104.54 159.162 104.252 159.554 104.472 159.941C105.189 161.203 106.354 161.916 107.502 162.76L107.603 162.835C108.859 163.77 110.207 164.621 111.573 165.388C113.925 166.709 116.032 162.93 113.657 161.821C112.228 161.153 110.727 160.498 109.224 160.02ZM83.5337 156.739C81.3506 156.883 79.1689 156.98 76.9831 157.069C74.4512 157.171 75.3024 161.07 77.4174 160.281C79.5069 159.501 81.5965 158.731 83.7048 158.004C84.3466 157.783 84.2949 156.728 83.5744 156.737L83.5337 156.739ZM139.525 149.803C138.959 149.764 138.389 149.887 137.822 149.942L137.219 150.001C135.976 150.125 134.811 150.277 133.626 150.783C131.439 151.717 132.613 155.235 134.809 155.154C136.431 155.095 137.819 154.397 139.189 153.586C140.387 152.876 141.122 151.988 141.93 150.874C142.198 150.505 141.825 150.091 141.46 150.054C140.818 149.988 140.168 149.848 139.525 149.803ZM29.8944 142.619C30.2563 144.879 31.1546 146.997 32.5082 148.841C33.1885 149.767 34.3828 149.802 35.0569 148.841C36.0106 147.48 35.4225 145.922 34.7041 144.615L34.4915 144.232C34.1698 143.659 33.6757 142.822 33.1112 142.244L33.1016 142.185C32.7991 139.819 29.5215 140.291 29.8944 142.619ZM118.19 128.118C117.646 127.627 116.644 127.774 116.467 128.573C116.22 129.691 116.07 130.95 116.232 132.085C116.319 132.7 116.352 133.39 116.594 133.964C116.854 134.58 117.354 135.054 117.825 135.517C118.765 136.442 120.747 136.136 120.998 134.679L121.03 134.5C121.157 133.81 121.319 133.073 121.131 132.39C120.99 131.874 120.673 131.348 120.412 130.869L120.357 130.767C119.832 129.79 119.015 128.86 118.19 128.118ZM41.6924 130.496L41.4956 130.498C39.9765 130.528 37.1993 130.898 37.1846 132.776C37.181 133.219 37.5087 133.678 37.9479 133.779C38.8559 133.99 39.4428 133.453 40.0899 132.911C40.6192 132.467 41.2361 132.113 41.8768 131.858C42.5689 131.583 42.5237 130.495 41.6924 130.496Z" fill="black"/>
<path fill-rule="evenodd" clip-rule="evenodd" d="M39.0691 57.297C39.8534 51.0351 42.3167 44.3866 44.9075 38.5488C50.733 26.206 64.0697 24.5066 76.0255 21.9617C87.8236 20.2431 100.317 18.6912 111.937 22.1203C118.47 23.7217 121.021 31.5067 119.99 37.6502C119.402 41.4785 117.66 45.1017 116.175 48.6496C113.224 55.9358 111.351 63.7363 111.348 71.6249C111.55 76.7801 112.278 82.6643 106.357 84.8478C100.723 87.6512 100.247 95.2507 93.1927 99.5624C90.3402 105.344 82.57 105.853 76.9775 107.194C73.4428 107.871 69.8681 108.369 66.2838 108.691C55.905 110.022 47.6022 107.012 42.1693 97.761C38.5336 92.1308 35.8262 85.6298 36.495 78.8062C37.1612 71.6207 38.271 64.4728 39.0691 57.297Z" fill="white"/>
<path fill-rule="evenodd" clip-rule="evenodd" d="M75.9359 6.96105C75.3435 6.28922 74.4308 6.51965 73.8769 7.0509C73.5162 7.15723 73.1668 7.31536 72.8368 7.52465C72.091 7.42888 71.3091 7.42889 70.5777 7.45573C70.4003 7.35616 70.2101 7.26759 70.0031 7.19148C68.5242 6.65051 67.2146 6.92533 66.1343 7.64959C65.614 7.15702 64.9576 6.84796 64.1184 6.89467C63.3695 6.93653 62.8358 7.28915 62.3784 7.7536C61.9223 7.09551 61.185 6.62598 60.2664 6.56066C58.9825 6.46934 57.7483 6.98452 56.7253 7.78214C56.1293 7.09804 55.3168 6.70484 54.4113 6.70103C53.8155 6.59279 53.1868 6.6355 52.6187 6.80715C51.7939 7.0564 51.0697 7.52338 50.4929 8.12947C49.5805 7.25511 48.4635 6.62598 47.1756 6.71773C45.5087 6.83823 44.127 8.06457 43.4848 9.57397C42.3566 10.0262 41.3151 10.6711 40.4446 11.5907C40.3982 11.6391 40.3538 11.6899 40.3073 11.7408C39.8383 11.914 39.3967 12.1594 39.008 12.4826C37.7763 13.5081 37.5017 14.9922 37.9094 16.4464C37.8524 16.6792 37.8038 16.9159 37.7594 17.1525C36.6059 17.3279 35.558 17.9941 34.9622 19.0786C34.1467 20.5668 34.3073 22.5284 35.1904 23.9492C35.5701 24.5604 36.052 25.0754 36.5932 25.5257C35.9812 26.9167 36.2748 28.5766 37.2617 29.7017C37.5021 30.0896 37.7972 30.4397 38.1293 30.7566C37.7628 32.1947 38.4148 33.6785 39.7162 34.447L39.8275 34.7258C39.8462 34.7721 39.8652 34.8182 39.8848 34.8639C39.8991 34.9231 39.9169 34.9804 39.9344 35.0381C39.9655 35.5484 40.1334 36.0492 40.4668 36.521C41.1493 37.488 41.9953 38.1186 42.4439 39.2475L42.4889 39.3661C42.6817 39.9003 43.3046 40.2772 43.8353 40.1123C40.8887 46.1671 39.3439 52.9042 38.2834 59.5067C37.7545 62.8006 37.3464 66.1058 37.0154 69.4237L36.6908 72.7278C36.4053 75.6647 36.1512 78.6113 36.1496 81.5579C36.1453 88.2236 38.051 94.6352 42.1411 99.9394C46.0094 104.954 51.4834 108.588 57.6672 110.019C64.0517 111.494 71.5411 110.913 77.2665 107.535C78.9545 106.541 77.4756 104.152 75.758 104.952C72.5066 106.465 69.2024 107.59 65.5982 107.842C62.0848 108.089 58.5629 107.649 55.2312 106.499C49.7193 104.594 45.0291 100.605 42.0144 95.6374C40.5291 93.1892 39.4538 90.5321 38.8812 87.7245C38.1686 84.2252 38.2759 80.6083 38.5378 77.0643L38.5559 76.8227C39.0735 69.9943 39.7559 63.1237 40.8587 56.3633C41.8335 50.3851 43.3324 44.5281 45.2784 38.8006C46.0407 38.1292 46.8934 37.5736 47.8058 37.1517C54.4876 36.8724 61.1814 36.954 67.8545 37.4153C73.5456 37.8112 79.2091 38.4812 84.8299 39.4575L85.4319 39.5633C86.6763 39.7851 88.058 39.9119 89.2305 40.4131C90.2362 40.8444 90.6439 41.6731 90.8974 42.6918C91.5355 45.2688 91.6327 48.0891 91.7404 50.7316C91.846 53.3147 91.6073 55.9194 91.8143 58.4941C91.9897 60.6482 92.5411 62.8531 94.1362 64.4114C94.9707 65.2272 95.9974 65.6732 96.9608 66.2926C97.5841 66.6924 97.8481 67.1044 97.7679 67.8443C97.5946 69.4637 96.2911 71.5037 97.7552 72.8905C98.0129 73.1336 98.4587 73.1653 98.7122 72.8905C99.3165 72.2332 100.151 71.732 100.867 71.2014C101.167 70.9817 100.918 70.5547 100.578 70.7067C100.13 70.9077 99.6735 71.1445 99.2066 71.3517C100.238 70.5019 101.704 70.0852 102.925 69.8378C103.54 69.7152 104.186 69.6793 104.826 69.7366C105.3 69.9626 105.783 70.1721 106.267 70.3769C106.882 70.635 107.503 70.8695 108.128 71.0917C110.298 72.8609 111.333 75.7383 110.881 78.552C110.634 80.1056 109.918 81.7949 108.568 82.7018C106.969 83.7757 104.826 83.3147 103.098 84.1118C101.48 84.8579 100.495 86.3654 99.758 87.9255L99.4506 88.5751C98.7663 90.0132 98.0628 91.4131 97.1277 92.722C96.046 94.2377 94.7214 95.5992 93.2763 96.7684C92.5753 97.3343 91.828 97.8433 91.0558 98.3068L90.8446 98.4321C90.0629 98.8909 89.5031 99.3283 89.4503 100.299C89.4334 100.637 89.6467 100.945 89.9214 101.121C91.1045 101.871 92.2812 100.933 93.2658 100.277C94.3284 99.5714 95.3446 98.7767 96.2848 97.91C98.0721 96.2653 99.6186 94.3119 100.808 92.1914C101.714 90.5765 102.23 88.3039 103.662 87.0524C104.537 86.2891 105.773 86.2829 106.865 86.1432C107.881 86.0123 108.843 85.8009 109.747 85.2999C113.425 83.2557 114.464 78.3068 113.592 74.4825C113.444 73.8375 113.237 73.2097 112.981 72.6051C114.35 72.8334 115.888 71.4172 115.333 69.9879C115.29 69.8801 115.242 69.7789 115.195 69.6751C116.097 69.081 116.809 68.1807 117.147 67.0029C117.321 66.3941 117.346 65.7789 117.255 65.1849C117.693 64.8913 118.054 64.4873 118.286 63.9905C119.013 63.6544 119.657 63.1514 120.042 62.4327C120.574 61.441 120.507 60.5277 120.101 59.7054C120.158 59.602 120.213 59.4963 120.266 59.3883C121.755 58.4435 122.795 56.8155 122.676 55.0102C122.638 54.4119 122.49 53.8728 122.262 53.3868C122.281 53.3255 122.3 53.2619 122.317 53.2006C123.564 52.5664 124.595 51.5244 124.962 50.1334C125.33 48.7337 124.897 47.3384 124.031 46.2645C125.298 45.3367 126.061 44.0408 125.598 42.0809C125.41 41.2841 125.032 40.5588 124.521 39.9479C124.523 39.929 124.527 39.91 124.531 39.8908L124.65 39.7987C126.215 38.5631 127.114 36.9884 126.154 35.0518C125.723 34.181 125.108 33.5741 124.385 33.1746L124.35 33.0604C124.867 31.9506 125.043 30.7181 124.685 29.4222C124.394 28.3548 123.703 27.5048 122.82 26.9406C122.879 26.4626 122.871 25.9533 122.776 25.4014C122.617 24.4693 122.154 23.6554 121.478 23.0783C121.453 22.9554 121.421 22.8352 121.385 22.7144C121.157 21.9769 120.731 21.1757 120.236 20.5814C119.828 20.0888 119.372 19.9092 118.814 19.8901C118.848 19.4358 118.825 18.9748 118.732 18.5076C118.447 17.066 117.53 15.7107 116.171 15.0956C115.614 14.844 115.026 14.7702 114.46 14.8313C113.978 13.8166 113.038 13.0811 111.883 12.9226C111.433 12.8591 111.014 12.8632 110.63 12.9204C110.412 12.8188 110.186 12.7281 109.95 12.6454C109.793 12.5905 109.635 12.5397 109.476 12.4892C108.942 11.8254 108.238 11.2946 107.416 10.9756C106.468 10.6056 105.502 10.6434 104.647 10.9542L104.374 10.8971C103.947 10.1572 103.267 9.58433 102.221 9.32431C101.034 9.03046 99.815 9.44058 98.8812 10.187C98.877 10.187 98.8728 10.187 98.8665 10.1847C98.3784 9.09177 97.5439 8.33072 96.1432 8.38357C95.2707 8.4174 94.4827 8.85098 93.8742 9.46827C93.5362 9.42578 93.1981 9.38773 92.858 9.34989C92.4988 8.92899 92.0996 8.53599 91.658 8.18295C90.9355 7.6035 89.9953 7.65022 89.4629 8.46602C89.3467 8.64359 89.239 8.82329 89.1312 9.00298L88.6432 8.96915C88.0686 8.19331 87.2848 7.66904 86.2115 7.62697C85.227 7.58659 84.5256 8.0688 83.9911 8.74295C83.5559 8.73238 83.1186 8.72414 82.6812 8.71759C82.1721 8.12778 81.5721 7.60773 80.8876 7.17647C80.3636 6.84669 79.5904 6.95894 79.1658 7.39865C78.8788 7.69758 78.6118 8.0096 78.3636 8.33262C77.7236 7.61471 76.8593 7.1418 75.9359 6.96105ZM107.03 74.0914C106.043 73.529 104.716 74.1379 103.762 74.6156C102.597 75.197 101.442 76.0743 100.73 77.1736C99.7601 78.6703 102.04 79.8795 103.06 78.5371C103.688 77.7105 104.188 76.8776 104.949 76.1546C105.644 75.4908 106.652 75.0469 107.051 74.1717C107.066 74.1421 107.062 74.1083 107.03 74.0914ZM106.336 37.7619L106.318 37.7091C106.037 36.9411 107.262 36.61 107.54 37.3717C107.962 38.5262 107.475 39.7813 106.336 40.2797C106.02 40.418 105.659 40.37 105.469 40.0523C105.309 39.7849 105.383 39.3215 105.696 39.1847C106.337 38.9041 106.552 38.4089 106.336 37.7619ZM116.886 35.6144C116.273 35.0732 117.173 34.1788 117.783 34.7176C118.352 35.2203 118.774 35.9032 118.664 36.6885C118.553 37.4889 117.949 38.0539 117.289 38.4533C116.59 38.8767 115.952 37.7804 116.65 37.358L116.728 37.31C117.021 37.128 117.364 36.8777 117.413 36.5196C117.466 36.1391 117.144 35.8421 116.886 35.6144ZM113.406 26.065L113.363 26.0331C112.704 25.5629 113.337 24.4623 114.002 24.9378C114.613 25.3739 115.103 25.9405 115.154 26.7218C115.204 27.4812 114.818 28.1395 114.313 28.6737C113.751 29.2679 112.856 28.3699 113.417 27.7769C113.963 27.199 114.07 26.5683 113.406 26.065Z" fill="black"/>
<path fill-rule="evenodd" clip-rule="evenodd" d="M56.7496 93.4247C56.6152 93.4881 56.5005 93.6431 56.4039 93.824C56.4521 93.6706 56.5516 93.5179 56.7496 93.4247ZM55.6031 73.8504C54.0078 74.8207 51.5769 77.0834 53.2932 79.489C55.3134 81.6101 58.222 79.1781 59.6553 78.0782C60.9843 77.2258 62.4775 79.4181 61.2445 80.4135C50.8873 88.0863 46.6842 74.1041 54.7962 72.7095C55.6894 72.5558 56.0211 73.5502 55.6031 73.8504Z" fill="black"/>
<path fill-rule="evenodd" clip-rule="evenodd" d="M56.9414 90.9782C56.6173 90.4144 55.8711 89.892 55.1883 89.9722C52.1293 90.3311 52.1346 94.0421 53.3158 96.2085C54.3631 98.1295 56.5305 99.2571 58.6998 99.0924C60.9787 98.9193 62.9205 97.5786 63.775 95.4453C64.3402 94.0342 64.6013 91.4291 63.0979 90.481C63.07 90.4632 63.024 90.4677 63.0018 90.4933C62.281 91.3323 62.2526 92.5921 61.6216 93.5262C61.0347 94.3951 60.1229 95.1126 59.0547 95.2234C58.2569 95.3062 57.4499 95.0183 57.1379 94.3017C56.969 93.914 56.9883 93.7035 57.0517 93.4367L57.1094 93.2049C57.3092 92.3928 57.3989 91.7745 56.9414 90.9782Z" fill="#231F20"/>
<path fill-rule="evenodd" clip-rule="evenodd" d="M72.971 68.0497C71.9918 66.5796 69.7566 66.7961 69.2172 68.5406C68.925 69.4856 69.3285 70.335 69.3076 71.2787C69.2901 72.0759 69.3423 72.9642 69.5865 73.7362C70.1434 75.4967 71.7258 76.7402 73.5978 76.6886C75.4637 76.6373 77.1072 75.4555 77.8887 73.7912C78.6729 72.1205 78.5068 70.3914 77.9343 68.6926C77.9068 68.611 77.7999 68.5715 77.7355 68.6402C77.0587 69.3598 76.5633 70.1195 76.0507 70.9255L75.5253 71.7514C75.1239 72.3733 74.5404 73.1679 73.7907 73.1179L73.6782 73.1068C73.4699 73.089 73.5018 73.1303 73.3411 72.8462C73.2668 72.7147 73.2803 72.4703 73.2444 72.3152L73.2319 72.2627L73.2387 72.2345C73.2546 72.1593 73.2703 72.0177 73.2831 71.772L73.2858 71.7177C73.3401 70.5684 73.6648 69.0913 72.971 68.0497Z" fill="#231F20"/>
<path fill-rule="evenodd" clip-rule="evenodd" d="M48.1487 69.0284C48.3243 67.1482 45.6826 66.7307 44.8044 68.1219C44.3463 68.8475 44.2129 69.7588 44.1116 70.6223L44.0643 71.0321C43.9603 71.9189 43.9191 72.8415 44.3039 73.6687C44.9098 74.9715 46.2275 75.6603 47.6489 75.5512C49.0063 75.4468 50.2447 74.6593 50.8975 73.4638C51.4796 72.3971 52.0582 70.3144 51.3513 69.2018C51.3087 69.1343 51.2233 69.1257 51.1648 69.1777C50.4967 69.7711 50.3879 70.8535 49.9908 71.6265C49.5811 72.424 48.9598 73.2011 48.0182 73.3222C47.1173 73.438 46.7732 72.9457 47.003 72.0863C47.2994 70.9769 48.0372 70.2222 48.1487 69.0284Z" fill="#231F20"/>
<path fill-rule="evenodd" clip-rule="evenodd" d="M72.2571 56.8716L71.8251 56.706C70.3449 56.1465 68.3128 55.4998 67.1094 56.7041C66.367 57.4468 66.2256 58.5408 66.7555 59.4471C67.3975 60.5449 68.5492 60.5719 69.6613 60.7337C70.9261 60.9176 72.2125 61.2672 73.3901 61.7657C74.7167 62.3274 75.9478 63.0276 77.1539 63.8095C78.3002 64.5526 79.4425 65.7671 80.8147 65.9961C80.8707 66.0054 80.9343 65.9813 80.9489 65.9197C81.2605 64.5773 80.3945 63.2563 79.6217 62.209C78.6866 60.941 77.5536 59.9003 76.2873 58.9672C75.0651 58.0664 73.6686 57.4155 72.2571 56.8716Z" fill="#231F20"/>
<path fill-rule="evenodd" clip-rule="evenodd" d="M45.3696 61.6444L45.2376 61.6212C44.3401 61.4717 43.5267 61.5061 42.8502 62.2175C42.3339 62.7601 42.1349 63.4635 42.381 64.181C42.6081 64.8428 43.116 65.5153 43.8531 65.654C46.3416 66.1225 49.098 66.0451 51.599 65.6904C52.7433 65.528 53.8978 65.3293 55.0124 65.016L55.5252 64.8672C56.4556 64.6013 57.5208 64.3235 58.1967 63.6387C58.4397 63.3926 58.2996 63.0404 58.0089 62.9265C56.8296 62.4644 55.2132 62.7102 53.9557 62.6741C52.4929 62.6322 51.0278 62.5225 49.5719 62.3714C48.1492 62.2234 46.7726 61.9018 45.3696 61.6444Z" fill="#231F20"/>
<path fill-rule="evenodd" clip-rule="evenodd" d="M74.9453 96.4407C73.2348 92.4311 69.5016 89.4841 65.2034 88.4068C62.047 87.6176 58.7345 87.6428 55.5169 87.956C53.8311 88.1189 52.023 88.2525 50.4342 88.8789C49.0776 89.4141 47.972 90.4257 47.1407 91.6131C46.1512 93.0202 45.4782 94.6307 45.0055 96.2814C44.9384 96.5161 44.8754 96.7525 44.8165 96.9901C45.022 98.2356 45.4583 99.2956 46.6112 100.079C47.7361 100.843 49.0784 101.156 50.4165 101.267C50.5478 101.204 50.6746 101.139 50.7908 101.073C52.876 99.8784 54.3436 97.0557 56.9755 97.4377C59.3242 97.7789 60.8703 100.736 62.2671 102.47C66.7505 102.993 71.2306 101.645 74.8786 99.0793C75.0639 98.2013 75.0746 97.3158 74.9453 96.4407ZM41.7694 93.399C42.1281 92.3919 42.5798 91.4165 43.1153 90.4976C44.8855 87.4589 47.603 85.0376 50.829 83.6536C58.4604 80.384 68.3346 82.6888 74.4975 88.0512C76.6028 89.8843 78.7314 92.5781 79.3751 95.4757C79.5674 95.5138 79.7488 95.6139 79.8982 95.7548C84.3509 92.9497 88.9362 90.2509 92.5243 86.3624C95.13 83.5372 96.9424 80.1937 98.0522 76.5196C98.1429 76.2172 98.6303 76.2615 98.6155 76.596C98.6113 76.6743 98.6071 76.7524 98.6028 76.8307C98.6493 76.6868 98.8687 76.7609 98.8856 76.9006C99.4827 81.3638 100.23 86.0958 99.5417 90.5823C99.1303 93.2593 97.915 95.2192 96.2904 97.3355C94.5498 99.6039 92.5792 101.714 90.5642 103.737C89.2856 105.022 87.9501 106.503 86.3846 107.445C84.5637 108.539 82.4982 109.371 80.555 110.215C78.578 111.076 76.5715 111.872 74.5271 112.562C70.4403 113.946 66.2163 114.902 61.9185 115.321C58.4773 115.656 54.5445 116.02 51.2467 114.725C48.7191 113.732 46.6789 111.938 45.0606 109.779C43.2989 107.428 41.9061 104.75 41.1362 101.925C40.3362 98.9919 41.6008 93.872 41.7694 93.399Z" fill="black"/>
</svg>
