<svg width="27" height="24" viewBox="0 0 27 24" fill="none" xmlns="http://www.w3.org/2000/svg">
<g clip-path="url(#clip0)">
<path d="M18.9656 0.36527C18.4175 0.506877 17.993 1.01485 17.9921 1.59496L17.9916 8.07028C17.9923 8.65468 18.4465 9.16144 18.9934 9.30113L21.2243 9.69798C21.6097 9.76652 22.0055 9.65534 22.3031 9.39452C22.6006 9.13235 22.7707 8.74955 22.7664 8.34593L22.6954 1.34209C22.6912 0.949115 22.5223 0.577044 22.2303 0.322609C21.9391 0.0671732 21.5549 -0.04413 21.1774 0.015943L18.9656 0.36527Z" fill="#13152D"/>
<path d="M26.2653 13.2563C21.3609 12.4038 19.7526 14.2145 17.7178 16.5085C16.3875 18.0052 14.8809 19.7039 11.9764 21.2371C10.6604 21.9341 8.85337 22.6024 7.73058 21.8411C7.1271 21.4312 6.7758 20.6598 6.57875 19.8607C7.31582 19.7032 7.87929 19.0489 7.91453 18.2456L8.32119 9.06L14.9688 9.06113C15.7748 9.06212 16.4289 8.388 16.4294 7.55866L16.43 1.87347C16.4299 1.53748 16.3006 1.21481 16.0693 0.976688C15.8381 0.738566 15.5253 0.605016 15.1986 0.605864L3.46893 0.604187C1.55393 0.603852 0.00107646 2.20113 0 4.17326L4.7096e-06 5.48912C-0.000127062 6.43635 0.365282 7.34457 1.01612 8.01431C1.55036 8.56419 2.24117 8.91572 2.98151 9.02407L3.38722 18.2453C3.42322 19.0665 4.01193 19.7313 4.77397 19.8703C5.01837 21.127 5.56169 22.5436 6.75184 23.3549C8.16141 24.3154 10.0782 24.2024 12.4545 23.0221C12.5628 22.9682 12.6717 22.9129 12.7821 22.8543C15.9688 21.1703 17.6603 19.2648 19.0193 17.733C20.9507 15.557 22.0148 14.3596 25.9699 15.0486C26.4508 15.132 26.9066 14.7988 26.9874 14.3033C27.0691 13.8086 26.7459 13.3405 26.2653 13.2563ZM2.20942 4.9161C2.20953 3.7905 3.09678 2.87683 4.19156 2.87696C5.28582 2.8786 6.17228 3.79056 6.17265 4.91718C6.17228 6.04353 5.28506 6.95594 4.19174 6.95634C3.09694 6.95749 2.20904 6.04372 2.20942 4.9161Z" fill="#13152D"/>
</g>
<defs>
<clipPath id="clip0">
<rect width="27" height="24" fill="white"/>
</clipPath>
</defs>
</svg>
