<svg width="20" height="28" viewBox="0 0 20 28" fill="none" xmlns="http://www.w3.org/2000/svg">
<path d="M10.0001 0C4.48595 0 0 4.6836 0 10.4407V26.4173C0 27.2901 0.679992 28 1.51592 28H5.90915V27.9971C5.91324 27.9971 5.91732 28 5.92141 28C6.17278 28 6.37596 27.7873 6.37596 27.5254V25.1222L6.47595 25.192C6.48957 25.2015 6.50414 25.2119 6.51775 25.2214L6.95276 25.5266C7.12504 25.6485 7.29321 25.7781 7.46093 25.9076C8.18864 26.4695 8.94143 27.0509 10.0001 27.0509C11.0587 27.0509 11.8114 26.4695 12.5391 25.9076C12.7069 25.7781 12.8751 25.6485 13.0469 25.5266L13.4823 25.2214C13.4882 25.2171 13.495 25.2128 13.5009 25.2081C13.5505 25.1739 13.5996 25.1393 13.6486 25.1051V27.5255C13.6486 27.7831 13.8459 27.9901 14.0914 27.9972V28H18.4846C19.32 28 20 27.2901 20 26.4173V10.4407C20.0001 4.6836 15.5141 0 10.0001 0ZM15.0392 22.8124C14.6337 23.2144 14.1764 23.5717 13.7091 23.9115C13.4656 24.0885 13.2201 24.2627 12.9732 24.435L12.5369 24.7411C12.3546 24.8701 12.1764 25.0073 11.9986 25.1444C11.3614 25.6366 10.7591 26.1016 10 26.1016C9.24093 26.1016 8.63864 25.6366 8.00136 25.1444C7.82364 25.0073 7.64543 24.8701 7.46314 24.7411L7.03222 24.4383C6.7863 24.2665 6.54174 24.0933 6.29901 23.9172C5.82901 23.5755 5.36854 23.2167 4.96082 22.8124C2.89989 20.7698 2.7272 17.5878 2.7272 14.7654C2.7272 13.0294 3.50037 11.3604 4.79582 10.3011C5.96357 9.34574 7.29314 8.59077 7.954 8.23907C10.3864 13.8026 15.7205 14.9658 17.2714 15.1893C17.251 17.9019 16.9978 20.8713 15.0392 22.8124Z" fill="#13152D"/>
</svg>
