<svg width="27" height="26" viewBox="0 0 27 26" fill="none" xmlns="http://www.w3.org/2000/svg">
<g clip-path="url(#clip0)">
<path d="M1.81251 9.56345L11.0123 0.984324C12.4196 -0.328108 14.5806 -0.328108 15.9878 0.984324L20.2466 4.95572V1.87029C20.2466 1.52601 20.5212 1.24687 20.8599 1.24687H22.6999C23.0386 1.24687 23.3132 1.52601 23.3132 1.87029V7.81545L25.1877 9.56345C25.5726 9.92247 25.8736 10.3563 26.0768 10.8333H0.923328C1.12655 10.3563 1.42751 9.92247 1.81251 9.56345Z" fill="#13152D"/>
<path d="M0.620323 12.2778V22.1565C0.620323 24.2224 2.26787 25.8971 4.30025 25.8971H8.59353C9.60966 25.8971 10.4334 25.0598 10.4334 24.0268V20.4839C10.4334 19.4511 11.2572 18.6137 12.2734 18.6137H14.7267C15.7429 18.6137 16.5667 19.4511 16.5667 20.4839V24.0268C16.5667 25.0598 17.3905 25.8971 18.4066 25.8971H22.6999C24.7323 25.8971 26.3799 24.2224 26.3799 22.1565V12.2778H0.620323Z" fill="#13152D"/>
</g>
<defs>
<clipPath id="clip0">
<rect width="27" height="26" fill="white"/>
</clipPath>
</defs>
</svg>
