<svg width="27" height="27" viewBox="0 0 27 27" fill="none" xmlns="http://www.w3.org/2000/svg">
<g clip-path="url(#clip0)">
<path d="M26.209 27H0.791016C0.354103 27 0 26.646 0 26.209V25.1953C0 23.8868 1.06458 22.8223 2.37305 22.8223H24.6269C25.9355 22.8223 27 23.8868 27 25.1953V26.209C27 26.646 26.6459 27 26.209 27Z" fill="#13152D"/>
<path d="M0.0970764 4.51168L2.34302 0.410957C2.48186 0.157585 2.7478 0 3.03681 0H24.1224C24.42 0 24.6923 0.167061 24.8275 0.43238L26.9138 4.5331L0.0970764 4.51168Z" fill="#13152D"/>
<path d="M24.6272 21.2402C24.9545 21.2402 25.2724 21.2809 25.5768 21.3561V18.8688H10.88V21.2402H24.6272Z" fill="#13152D"/>
<path d="M8.41647 11.0895C7.50946 11.0895 6.63316 10.841 5.87449 10.3845C5.11602 10.841 4.23972 11.0895 3.33273 11.0895C2.71599 11.0895 2.12541 10.9756 1.58096 10.7685V21.3199C1.83701 21.2678 2.10171 21.2402 2.373 21.2402H9.29765V11.0097C9.00933 11.0621 8.71454 11.0895 8.41647 11.0895ZM7.71566 16.3083C7.71566 16.7452 7.36156 17.0993 6.92464 17.0993C6.48794 17.0993 6.13363 16.7452 6.13363 16.3083V15.5161C6.13363 15.0792 6.48794 14.7251 6.92464 14.7251C7.36156 14.7251 7.71566 15.0792 7.71566 15.5161V16.3083Z" fill="#13152D"/>
<path d="M21.1255 10.3845C21.884 10.841 22.7603 11.0895 23.6673 11.0895C24.344 11.0895 24.9894 10.9529 25.5768 10.7059V17.2868H18.4517L18.4479 17.2869L10.88 17.2868V10.4298C10.8901 10.424 10.9002 10.4182 10.9103 10.4125C10.9264 10.4033 10.9424 10.394 10.9583 10.3845C11.717 10.841 12.5933 11.0892 13.5001 11.0892C14.407 11.0892 15.2834 10.841 16.0418 10.3845C16.5405 10.6845 17.0899 10.894 17.6654 11.0027L17.6644 11.0038C18.6582 11.0459 19.6219 10.9688 20.0566 10.8655L20.0579 10.8643C20.4317 10.7473 20.7902 10.5862 21.1255 10.3845Z" fill="#13152D"/>
<path d="M0 6.09436V6.20765C0 8.0272 1.4951 9.50745 3.33277 9.50745C4.35058 9.50745 5.26273 9.05286 5.87453 8.33843C6.48654 9.05286 7.39867 9.50745 8.41647 9.50745C9.43429 9.50745 10.3465 9.05286 10.9582 8.33843C11.5701 9.05286 12.4822 9.50745 13.5 9.50745C14.5178 9.50745 15.4299 9.05286 16.0418 8.33843C16.6535 9.05286 17.5657 9.50745 18.5835 9.50745C19.6013 9.50745 20.5135 9.05286 21.1255 8.33843C21.7373 9.05286 22.6494 9.50745 23.6672 9.50745C25.5049 9.50745 27 8.0272 27 6.20765V6.09436H0Z" fill="#13152D"/>
</g>
<defs>
<clipPath id="clip0">
<rect width="27" height="27" fill="white"/>
</clipPath>
</defs>
</svg>
