<svg width="30" height="24" viewBox="0 0 30 24" fill="none" xmlns="http://www.w3.org/2000/svg">
<g clip-path="url(#clip0)">
<path d="M4.58916 0.540527C4.58835 0.540527 4.58745 0.540527 4.58664 0.540527C4.3029 0.540527 4.03602 0.651134 3.83451 0.852143C3.63078 1.05538 3.51855 1.32599 3.51855 1.61407V17.7116C3.51855 18.3019 4.00068 18.7833 4.5934 18.7848C7.0922 18.7908 11.2786 19.3116 14.1667 22.334V5.48741C14.1667 5.28731 14.1157 5.09933 14.0192 4.94378C11.6488 1.12639 7.09362 0.546386 4.58916 0.540527Z" fill="#13152D"/>
<path d="M26.4816 17.7117V1.61407C26.4816 1.32599 26.3694 1.05538 26.1657 0.852143C25.9641 0.651134 25.6971 0.540527 25.4136 0.540527C25.4127 0.540527 25.4118 0.540527 25.411 0.540527C22.9067 0.546487 18.3515 1.12649 15.981 4.94387C15.8845 5.09943 15.8335 5.28741 15.8335 5.48752V22.334C18.7216 19.3116 22.9081 18.7908 25.4069 18.7848C25.9995 18.7833 26.4816 18.3019 26.4816 17.7117Z" fill="#13152D"/>
<path d="M28.927 4.25317H28.1486V17.7119C28.1486 19.219 26.9206 20.4481 25.4111 20.4518C23.2916 20.4568 19.7969 20.8713 17.3218 23.2138C21.6024 22.1657 26.1149 22.8471 28.6867 23.4331C29.0078 23.5063 29.3396 23.4307 29.5969 23.2257C29.8532 23.0211 30.0003 22.7153 30.0003 22.3872V5.32651C30.0004 4.73469 29.5188 4.25317 28.927 4.25317Z" fill="#13152D"/>
<path d="M1.85172 17.7119V4.25317H1.07334C0.481618 4.25317 0 4.73469 0 5.32651V22.3869C0 22.7152 0.147071 23.0208 0.403435 23.2253C0.660507 23.4303 0.992025 23.5062 1.31364 23.4328C3.88537 22.8466 8.39797 22.1654 12.6784 23.2136C10.2035 20.8711 6.70871 20.4568 4.5892 20.4517C3.07981 20.4481 1.85172 19.219 1.85172 17.7119Z" fill="#13152D"/>
</g>
<defs>
<clipPath id="clip0">
<rect width="30" height="24" fill="white"/>
</clipPath>
</defs>
</svg>
