<svg width="26" height="24" viewBox="0 0 26 24" fill="none" xmlns="http://www.w3.org/2000/svg">
<g clip-path="url(#clip0)">
<path d="M17.6804 9.96924C19.1125 10.742 21.8709 10.5054 23.9681 8.39309C26.0482 6.29884 26.8347 3.23636 24.8681 1.19058L24.8696 1.18978C24.8603 1.18114 24.8268 1.1475 24.8183 1.13847C24.8183 1.13847 24.8183 1.13927 24.8167 1.13927C22.7865 -0.840225 19.7456 -0.0486939 17.6648 2.04562C15.5675 4.15794 15.3326 6.93571 16.0996 8.37782C15.902 9.55869 14.2932 10.8399 12.8503 11.6714C11.7374 10.9801 10.3341 9.75847 10.1867 7.30226C10.2933 6.32116 9.97237 5.30162 9.22675 4.55074C9.15836 4.48183 8.96148 4.31415 8.96148 4.31415L3.52548 0.0508202L3.0303 0.549066L8.92883 6.12139L8.28902 6.76567L2.57448 1.01077L2.04977 1.53875L7.76346 7.29396L7.22323 7.83804L1.50952 2.08439L1.03148 2.56146L6.71099 8.28109L6.06027 8.93876L0.541785 3.05573L0 3.60292L4.51104 9.32684C4.51104 9.32684 4.61843 9.43767 4.66389 9.4784C5.32044 10.0561 6.14463 10.3287 6.96025 10.3057C6.96608 10.3057 6.97465 10.3072 6.97773 10.308C9.12549 10.3296 10.4527 11.6444 11.2874 12.7788C9.24502 14.8365 2.90664 21.22 2.90664 21.22L2.90818 21.2215C2.90195 21.2263 2.89379 21.2317 2.88756 21.238C2.37142 21.7573 2.37142 22.6002 2.88756 23.1212C2.914 23.1471 3.01357 23.2465 3.03887 23.2732C3.55502 23.7933 4.39327 23.7933 4.9086 23.274C4.91483 23.2677 4.92025 23.2599 4.92535 23.2529L4.92688 23.2552C4.92688 23.2552 10.813 17.3276 13.0697 15.0559C15.2174 17.2179 21.1708 23.2113 21.1708 23.2113L21.1723 23.2098C21.1769 23.2153 21.1793 23.2231 21.1871 23.231C21.6943 23.7409 22.5221 23.7409 23.0299 23.2294C23.5379 22.7171 23.5395 21.8868 23.0307 21.3736C23.023 21.3666 23.0152 21.3643 23.009 21.3572L23.0105 21.3557C23.0105 21.3557 16.4349 14.7348 14.6106 12.8963C15.4345 11.5441 16.5998 10.1524 17.6804 9.96924ZM16.9818 6.01406C17.0128 5.66272 17.0829 5.25853 17.1987 4.83081C17.2602 4.61816 17.3325 4.39917 17.4205 4.1779C17.5177 3.95311 17.6197 3.74391 17.769 3.52499C18.0545 3.10475 18.4021 2.77802 18.7484 2.50388C19.0906 2.22618 19.4384 2.01036 19.7471 1.84666C20.0537 1.67979 20.3282 1.57172 20.5243 1.50983C20.7234 1.44402 20.8393 1.43539 20.8393 1.43539C20.8393 1.43539 20.7437 1.50827 20.6006 1.64298C20.4559 1.7785 20.2497 1.97281 20.0016 2.20541C19.5255 2.67311 18.8472 3.28018 18.3664 3.9405C18.2505 4.09133 18.1471 4.29029 18.0568 4.47239C17.9588 4.65848 17.8716 4.85076 17.7924 5.0411C17.6273 5.41946 17.4913 5.78604 17.3738 6.10218C17.2595 6.41905 17.17 6.68692 17.1171 6.87732C17.0595 7.06806 17.0673 7.18126 17.0767 7.18126C17.072 7.18834 17.0013 7.07864 16.9802 6.86828C16.9545 6.66029 16.949 6.36458 16.9818 6.01406Z" fill="#13152D"/>
</g>
<defs>
<clipPath id="clip0">
<rect width="26" height="24" fill="white"/>
</clipPath>
</defs>
</svg>
