<svg width="33" height="24" viewBox="0 0 33 24" fill="none" xmlns="http://www.w3.org/2000/svg">
<path d="M5.7194 19.6038H26.805C27.5504 19.6038 28.1882 19.3349 28.719 18.7965C29.2499 18.2582 29.5153 17.6116 29.5153 16.8561V2.74757C29.5153 1.99191 29.2499 1.3453 28.719 0.807084C28.1882 0.268929 27.5505 0 26.805 0H5.7194C4.97407 0 4.33588 0.268929 3.8051 0.807084C3.27425 1.34524 3.00898 1.99191 3.00898 2.74757V16.8562C3.00898 17.6117 3.27425 18.2585 3.8051 18.7965C4.33588 19.3345 4.97407 19.6038 5.7194 19.6038ZM5.1771 2.74757C5.1771 2.59876 5.23079 2.46974 5.33807 2.36123C5.44552 2.2526 5.57261 2.1981 5.7194 2.1981H26.8046C26.9517 2.1981 27.0787 2.25248 27.186 2.36123C27.2929 2.47004 27.3466 2.59876 27.3466 2.74757V16.8562C27.3466 17.0049 27.2929 17.134 27.186 17.2424C27.0787 17.3511 26.9517 17.4057 26.8046 17.4057H5.71922C5.57237 17.4057 5.44528 17.3513 5.33789 17.2424C5.23079 17.1335 5.1771 17.0049 5.1771 16.8562V2.74757Z" fill="#13152D"/>
<path d="M8.6087 6.54545C8.6087 6.14379 8.92987 5.81818 9.32609 5.81818H13.6304C14.0266 5.81818 14.3478 6.14379 14.3478 6.54545V10.1818C14.3478 10.5835 14.0266 10.9091 13.6304 10.9091H9.32609C8.92987 10.9091 8.6087 10.5835 8.6087 10.1818V6.54545Z" fill="#13152D"/>
<path d="M16.5 6.54545C16.5 6.14379 16.8212 5.81818 17.2174 5.81818H22.9565C23.3527 5.81818 23.6739 6.14379 23.6739 6.54545C23.6739 6.94711 23.3527 7.27272 22.9565 7.27272H17.2174C16.8212 7.27272 16.5 6.94711 16.5 6.54545Z" fill="#13152D"/>
<path d="M16.5 9.45457C16.5 9.05289 16.8212 8.72729 17.2174 8.72729H17.9348C18.331 8.72729 18.6522 9.05289 18.6522 9.45457C18.6522 9.85624 18.331 10.1818 17.9348 10.1818H17.2174C16.8212 10.1818 16.5 9.85624 16.5 9.45457Z" fill="#13152D"/>
<path d="M8.6087 13.8182C8.6087 13.4165 8.92987 13.0909 9.32609 13.0909H13.6304C14.0266 13.0909 14.3478 13.4165 14.3478 13.8182C14.3478 14.2198 14.0266 14.5454 13.6304 14.5454H9.32609C8.92987 14.5454 8.6087 14.2198 8.6087 13.8182Z" fill="#13152D"/>
<path d="M0 20.7031V22.3514C0 22.8096 0.265275 23.1986 0.79606 23.5191C1.32715 23.8396 1.96503 23.9999 2.71035 23.9999H29.8142C30.5594 23.9999 31.1974 23.8396 31.7282 23.5191C32.2589 23.1986 32.5245 22.8096 32.5245 22.3514V20.7031H0ZM17.6174 22.3514H14.907C14.7265 22.3514 14.6362 22.2596 14.6362 22.0766C14.6362 21.8934 14.7265 21.8015 14.907 21.8015H17.6174C17.798 21.8015 17.8887 21.8934 17.8887 22.0766C17.8887 22.2596 17.798 22.3514 17.6174 22.3514Z" fill="#13152D"/>
</svg>
