<svg width="32" height="16" viewBox="0 0 32 16" fill="none" xmlns="http://www.w3.org/2000/svg">
<path d="M24.6854 0.229065C20.1456 0.229065 17.1412 3.94088 14.4907 7.21643C12.2261 10.0146 10.0876 12.6569 7.48306 12.6569C4.77583 12.6569 3.11366 9.87446 3.11366 7.87977C3.11366 6.03036 4.93709 3.34273 7.79492 3.34273C10.568 3.34273 12.0126 5.56215 12.0855 5.6759C12.5348 6.40292 13.4886 6.6317 14.2193 6.18607C14.9536 5.73874 15.1862 4.7808 14.7386 4.04654C14.6436 3.89103 12.3599 0.229278 7.79492 0.229278C3.20143 0.229278 0 4.26168 0 7.87998C0 11.6122 3.07319 15.7708 7.48285 15.7708C11.5726 15.7708 14.2866 12.4179 16.9108 9.17512C19.3383 6.17627 21.6314 3.34294 24.6854 3.34294C26.5025 3.34294 27.6964 3.95941 28.3346 5.22601C28.8876 6.32517 28.8872 7.56898 28.8868 7.99991C28.8868 8.24701 28.7562 9.48634 28.1516 10.6023C27.4623 11.8736 26.4837 12.4654 25.0695 12.4654C22.2217 12.4654 20.6831 10.6143 20.1037 9.91706C19.9531 9.73557 19.8446 9.60499 19.6998 9.48102C19.0475 8.92227 18.0642 8.99725 17.5044 9.65036C16.9646 10.2803 17.0166 11.2167 17.6063 11.7835C17.6344 11.8155 17.6682 11.8574 17.7085 11.9062C18.4636 12.8149 20.7598 15.5786 25.0689 15.5786C30.3061 15.5786 31.9998 10.472 31.9998 7.97861C32.0002 6.39057 31.7028 4.99361 31.1149 3.82564C30.2895 2.18541 28.5035 0.229065 24.6854 0.229065Z" fill="#13152D"/>
</svg>
