<svg width="160" height="162" viewBox="0 0 160 162" fill="none" xmlns="http://www.w3.org/2000/svg">
<ellipse rx="80" ry="80.5" transform="matrix(-1 0 0 1 80 81.5)" fill="#F0F1F7"/>
<g clip-path="url(#clip0)">
<path d="M144.405 83.156L153.881 72.3253C156.46 69.738 157.3 68.5345 156.82 68.0532C156.16 67.4515 156.4 67.632 151.122 71.6634C151.122 71.6634 158.679 65.887 156.04 65.8269C155.561 65.8269 154.301 66.5489 152.922 67.4515C154.781 65.8269 155.321 64.804 154.961 64.2624C154.361 63.3599 149.743 66.6091 147.584 68.1133C149.323 66.7896 152.622 64.2624 153.222 63.4802C154.001 62.3971 152.382 62.4573 151.062 62.9387C149.563 63.42 141.406 67.632 138.947 68.7151C137.268 69.4371 136.668 67.9328 136.668 67.9328C135.769 64.1421 133.07 61.7352 132.05 61.3742C131.031 61.0734 130.251 62.3971 130.971 63.3599C131.57 64.1421 132.17 65.7065 132.59 66.9099C132.95 67.9328 133.07 68.9557 133.07 69.9786C133.07 71.1821 133.01 72.205 132.89 73.1075L124.193 85.0815L138.707 93.5054L144.405 83.156Z" fill="#FFBE9D"/>
<path d="M147.824 73.3482C147.944 73.4686 149.623 72.3253 151.602 70.7609C153.581 69.1964 155.081 67.8125 155.021 67.6922C154.901 67.5718 153.222 68.7151 151.242 70.2795C149.263 71.844 147.764 73.2279 147.824 73.3482Z" fill="#EB996E"/>
<path d="M146.026 71.4497C145.931 71.3134 147.639 69.9556 149.84 68.417C152.042 66.8784 153.903 65.7416 153.998 65.878C154.092 66.0143 152.384 67.3721 150.183 68.9107C147.982 70.4493 146.12 71.5861 146.026 71.4497Z" fill="#EB996E"/>
<path d="M144.665 69.4694C144.572 69.3318 146.209 68.0572 148.321 66.6225C150.433 65.1878 152.22 64.1362 152.313 64.2738C152.406 64.4114 150.769 65.686 148.657 67.1207C146.545 68.5554 144.758 69.607 144.665 69.4694Z" fill="#EB996E"/>
<path d="M132.17 74.9127L97.5643 118.898L105.481 137.43C105.481 137.43 114.957 135.324 117.836 131.293C120.715 127.261 144.405 83.1561 144.405 83.1561L132.17 74.9127Z" fill="#FFBE9D"/>
<path d="M44.366 13.3579C41.847 15.5241 41.907 19.3148 42.1469 22.6242C42.4467 25.9336 42.6267 29.6642 40.4076 32.071C38.5483 34.0567 35.1297 34.8991 34.7099 37.6068C34.53 38.8703 35.1897 40.1941 36.2693 40.7958C37.4088 41.3975 38.8482 41.217 39.8078 40.3746C39.0881 42.4806 39.5679 45.1281 41.4272 46.4519C43.2864 47.7155 46.3451 46.9332 46.8849 44.7671C46.5251 46.2112 47.6046 47.8358 49.044 48.0765C50.4835 48.3172 52.0428 47.1739 52.2227 45.7298" fill="#263238"/>
<path d="M79.9914 35.561C80.5912 37.1856 82.6903 38.0881 84.3096 37.4263C85.929 36.7644 86.7686 34.6584 86.0489 33.0338C85.4492 31.7702 84.1297 30.8676 84.0098 29.4837C83.8298 27.7989 85.5092 26.6557 87.0085 25.9336C88.5079 25.2116 90.2472 24.2489 90.4271 22.6242C90.6071 20.9996 89.1677 19.7962 87.9681 18.7131C86.7686 17.6301 85.5691 16.0055 86.3488 14.5614C86.7087 13.8393 87.4883 13.4181 88.0281 12.7562C89.1677 11.3121 88.5679 9.02564 87.1285 7.94256C85.6891 6.79932 83.7099 6.67898 81.9106 6.97983C80.1114 7.28069 78.432 8.06291 76.6928 8.54427C70.9351 10.2291 64.5177 9.38666 59.4198 6.25778" fill="#263238"/>
<path d="M69.3757 74.3711C62.8984 75.6949 56.601 71.5431 55.2215 65.1048L46.705 25.9336C44.4859 16.4266 50.4834 6.91966 60.0795 4.93402L60.9792 4.81368C69.9755 3.48993 78.492 9.32649 80.4712 18.2318C82.3904 26.4752 84.3696 35.6211 84.9694 40.1339C86.2289 49.4604 77.1725 52.2283 77.1725 52.2283L78.7919 60.0505C80.1114 66.6091 75.9131 73.0474 69.3757 74.3711Z" fill="#FFBE9D"/>
<path d="M78.7919 24.3692C78.9119 25.0912 78.4321 25.7531 77.7124 25.8734C76.9927 25.9938 76.273 25.5726 76.153 24.8505C76.0331 24.1285 76.5129 23.4666 77.2326 23.3463C78.0122 23.2259 78.672 23.6471 78.7919 24.3692Z" fill="#263238"/>
<path d="M79.1518 23.0454C79.0318 23.2259 77.8923 22.6242 76.4529 22.8649C75.0135 23.0454 74.1138 23.948 73.9339 23.7675C73.8739 23.7073 73.9939 23.3463 74.3537 22.9853C74.7736 22.5641 75.4933 22.1429 76.3329 22.0225C77.2326 21.9022 78.0123 22.1429 78.4921 22.3835C79.0318 22.6844 79.2118 22.9853 79.1518 23.0454Z" fill="#263238"/>
<path d="M64.8777 26.6557C64.9976 27.3777 64.5178 28.0396 63.7981 28.1599C63.0784 28.2803 62.3587 27.8591 62.2387 27.137C62.1188 26.415 62.5986 25.7531 63.3183 25.6328C64.098 25.5124 64.7577 25.9938 64.8777 26.6557Z" fill="#263238"/>
<path d="M65.1775 25.3921C65.0576 25.5726 63.918 24.9709 62.4786 25.2116C61.0392 25.3921 60.1396 26.2946 59.9597 26.1141C59.8997 26.054 60.0196 25.6929 60.3795 25.3319C60.7993 24.9107 61.519 24.4895 62.3587 24.3692C63.2583 24.2488 64.038 24.4895 64.5178 24.7302C65.0576 24.9709 65.2975 25.2717 65.1775 25.3921Z" fill="#263238"/>
<path d="M71.8948 35.1999C71.8948 35.1398 72.7344 34.8389 74.1738 34.4177C74.5337 34.2974 74.8935 34.177 74.8935 33.9363C74.9535 33.6355 74.7136 33.2745 74.4737 32.9134C73.9939 32.0711 73.5141 31.2287 72.9743 30.3261C70.9352 26.5955 69.3758 23.5268 69.4957 23.4065C69.6757 23.3463 71.4749 26.2947 73.5141 30.0252C73.9939 30.9278 74.4737 31.8304 74.9535 32.6728C75.1334 33.094 75.4333 33.5151 75.3733 34.0567C75.3134 34.3575 75.0735 34.5982 74.8336 34.6584C74.5937 34.7787 74.4137 34.7787 74.2338 34.8389C72.8544 35.1398 71.9547 35.2601 71.8948 35.1999Z" fill="#263238"/>
<path d="M64.7577 19.736C64.6977 20.1572 63.1983 20.1572 61.579 20.6386C59.9596 21.0598 58.6402 21.7217 58.4003 21.4208C58.2803 21.2403 58.4602 20.8793 58.94 20.3979C59.4198 19.9166 60.2595 19.4352 61.2191 19.1945C62.1787 18.9538 63.1383 18.9538 63.7981 19.1343C64.4578 19.2547 64.8176 19.5555 64.7577 19.736Z" fill="#263238"/>
<path d="M78.0123 19.014C77.8323 19.375 76.7528 19.1945 75.6132 19.3148C74.4137 19.4352 73.4541 19.8564 73.2142 19.5555C73.0943 19.4352 73.2142 19.0742 73.5741 18.7131C73.9339 18.3521 74.6536 17.9911 75.4333 17.8707C76.273 17.7504 76.9927 17.9911 77.4725 18.2318C77.9523 18.5326 78.1322 18.8335 78.0123 19.014Z" fill="#263238"/>
<path d="M55.2815 14.3207C55.2815 14.3207 55.2215 14.3207 55.2815 14.3207C53.9621 15.7648 53.1824 17.5699 53.2424 19.4954C53.2424 19.5555 53.2424 19.6157 53.2424 19.6759C53.2424 22.3836 53.7222 25.0913 53.7222 27.7388C53.7222 30.4465 53.1824 33.2745 51.5031 35.3805C50.7834 36.2229 49.4639 36.9449 48.6842 36.1627C48.3843 35.8618 48.2644 35.4406 48.2044 35.0194C46.765 28.7015 44.1861 23.2861 43.2265 16.6072C42.9866 14.802 43.5863 12.9367 44.9058 11.6732C46.1653 10.4697 47.7246 9.14599 49.344 9.68752C51.0233 10.1689 53.4223 12.8164 54.8017 13.8995" fill="#263238"/>
<path d="M50.4235 29.7244C50.2436 29.6642 43.7662 28.7617 44.9057 35.0796C46.0453 41.3975 52.1028 38.9305 52.1028 38.75C52.1028 38.5695 50.4235 29.7244 50.4235 29.7244Z" fill="#FFBE9D"/>
<path d="M49.7638 36.7042C49.7038 36.7042 49.6438 36.8246 49.5239 36.9449C49.3439 37.0652 49.0441 37.1856 48.6842 37.1254C47.9645 37.0051 47.2448 36.0423 47.0049 34.8991C46.885 34.2974 46.885 33.7558 47.0049 33.2745C47.1249 32.7931 47.3648 32.3719 47.6646 32.2516C47.9645 32.1312 48.2644 32.2516 48.3843 32.4321C48.5043 32.6126 48.5043 32.7329 48.5043 32.7329C48.5043 32.7329 48.6242 32.6126 48.5043 32.3719C48.4443 32.2516 48.3843 32.1312 48.2044 32.0109C48.0245 31.8905 47.7846 31.8905 47.5447 31.9507C47.0649 32.0711 46.705 32.6126 46.5851 33.1541C46.4051 33.6957 46.4051 34.3575 46.5251 34.9593C46.765 36.2228 47.6646 37.3059 48.6242 37.4263C49.104 37.4864 49.4039 37.2457 49.5838 37.0652C49.8237 36.8847 49.8237 36.7042 49.7638 36.7042Z" fill="#EB996E"/>
<path d="M49.2839 10.7104C47.3647 8.42392 51.0832 4.1518 54.082 2.64753C57.0808 1.20343 61.399 2.10599 64.6377 2.7077C66.6768 3.06872 68.776 3.67043 70.8152 3.3094C72.1946 3.06872 73.4541 2.34667 74.6536 1.68479C75.9131 1.02291 77.1726 0.421206 78.612 0.300865C79.9914 0.180523 81.5508 0.72206 82.2705 1.92548C82.9902 3.12889 82.5104 4.99419 81.131 5.41538C82.7503 4.21197 85.4492 5.11453 86.0489 7.03999C86.6487 8.96546 84.8494 11.1918 82.8103 11.0714C83.5899 10.229 85.1493 11.1918 85.2093 12.335C85.2693 13.4783 84.3696 14.441 83.41 15.0427C80.951 16.6072 77.8323 16.6673 74.9535 16.1258C72.0746 15.5842 69.3158 14.5613 66.4969 13.9596C63.6181 13.3579 58.8201 12.2749 56.2411 13.5986C54.3219 14.6215 53.3023 17.2089 52.1028 16.8478C50.9633 16.4868 50.0636 15.4639 49.7038 14.2605C49.284 13.1774 49.2839 11.9138 49.2839 10.7104Z" fill="#263238"/>
<path d="M36.929 40.0136C36.929 40.0136 36.809 40.0136 36.5691 39.8933C36.3892 39.7729 36.0893 39.5322 35.9094 39.111C35.7295 38.6898 35.6095 38.1483 35.7295 37.4864C35.8494 36.8245 36.2692 36.1627 36.869 35.6211C37.4687 35.0796 38.2484 34.6584 39.1481 34.2974C39.9877 33.9364 40.9473 33.5753 41.787 33.0338C42.6266 32.4321 43.2864 31.5897 43.7062 30.5066C44.126 29.4837 44.306 28.2803 44.246 27.0769C44.186 24.67 43.5263 22.4437 43.3463 20.2776C43.1664 18.1716 43.4663 16.186 44.3659 14.802C45.2656 13.4181 46.4651 12.7562 47.3647 12.5155C47.7845 12.3952 48.1444 12.3952 48.3843 12.3952C48.6242 12.3952 48.7441 12.4554 48.7441 12.4554C48.7441 12.5155 48.2643 12.3952 47.3647 12.6359C46.525 12.8766 45.3855 13.5384 44.5459 14.9224C43.7062 16.2461 43.4063 18.1716 43.6462 20.2776C43.8261 22.3836 44.4859 24.6099 44.5459 27.0769C44.5459 28.2803 44.4259 29.5439 43.9461 30.627C43.5263 31.71 42.8066 32.6728 41.9069 33.2745C41.0073 33.8762 40.0477 34.177 39.208 34.5381C38.3684 34.8991 37.5887 35.2601 36.9889 35.8016C36.3892 36.283 35.9694 36.9449 35.9094 37.5466C35.7894 38.1483 35.9094 38.6898 36.0293 39.111C36.3892 39.8933 36.929 40.0136 36.929 40.0136Z" fill="#455A64"/>
<path d="M81.3109 5.23488C81.3109 5.23488 81.3709 5.1747 81.6108 5.11453C81.7307 5.05436 81.7907 4.99419 81.9706 4.99419C82.0906 4.93402 82.2705 4.87385 82.4504 4.87385C83.2301 4.69334 84.4896 4.81368 85.6291 5.83658C86.4088 6.73915 86.8886 8.0629 86.7687 9.62734C86.6487 11.1316 85.869 12.7562 84.4296 13.8995C83.0502 15.1029 81.1909 15.8249 79.2117 16.0055C77.2325 16.2461 75.0734 16.0054 72.9743 15.6444C69.4957 14.9825 66.377 13.6588 63.798 12.0943C62.4786 11.3121 61.2791 10.5901 60.0196 10.1087C58.7601 9.62734 57.5606 9.38666 56.421 9.38666C54.142 9.32649 52.3427 10.0485 51.2631 10.5901C50.1236 11.1918 49.6438 11.6732 49.5838 11.6732C49.5838 11.6732 50.0636 11.1316 51.2032 10.5299C52.2827 9.9282 54.082 9.20615 56.421 9.20615C57.5606 9.20615 58.8201 9.44683 60.1395 9.9282C61.399 10.4096 62.6585 11.1316 63.978 11.9138C66.5569 13.4783 69.6756 14.7419 73.0942 15.4037C75.1934 15.8249 77.2925 16.0055 79.2117 15.7648C81.1909 15.5843 82.9902 14.8622 84.3097 13.719C85.6291 12.6359 86.4688 11.0714 86.5887 9.62734C86.7087 8.18324 86.2888 6.85949 85.5691 6.0171C84.4896 5.05436 83.2901 4.87385 82.5104 4.99419C81.7307 5.05436 81.3709 5.29505 81.3109 5.23488Z" fill="#455A64"/>
<path d="M77.8323 0C77.8323 0 77.8923 0.541537 77.5924 1.4441C77.2925 2.34666 76.5129 3.55008 75.1334 4.45264C74.4137 4.93401 73.5741 5.29503 72.6145 5.47554C71.6548 5.65606 70.5753 5.71623 69.4957 5.65606C67.2766 5.47554 64.9976 4.75349 62.5985 4.09161C60.1995 3.48991 57.7405 3.12888 55.7014 3.67042C53.6022 4.21196 52.0429 5.47554 51.0233 6.73913C50.0037 8.00272 49.4639 9.2663 49.224 10.1087C48.9841 11.0113 48.9841 11.4926 48.9241 11.4926C48.9241 11.4926 48.9241 11.3723 48.9241 11.1316C48.9241 10.8909 48.9841 10.5299 49.1041 10.0485C49.344 9.14596 49.8238 7.88238 50.8433 6.55862C51.8629 5.23486 53.4823 3.9111 55.6414 3.36957C57.8005 2.76786 60.2595 3.12888 62.7185 3.73059C65.1775 4.39247 67.4566 5.11452 69.6157 5.29503C70.6952 5.41537 71.7148 5.3552 72.6744 5.17469C73.634 4.99418 74.4137 4.63315 75.1334 4.21196C76.5129 3.36957 77.2925 2.22632 77.5924 1.38393C77.7724 0.541537 77.7723 0 77.8323 0Z" fill="#455A64"/>
<path d="M74.7735 39.9534C74.6536 40.5551 74.5336 41.217 74.2937 41.7585C73.9939 42.3001 73.574 42.8416 72.9743 42.962C72.3145 43.1425 71.6548 42.9018 71.175 42.4204C70.6952 41.9391 70.4553 41.3373 70.3353 40.6755C70.2154 40.0738 70.3353 39.3517 70.9351 39.111C71.175 39.0509 71.4149 39.0509 71.6548 39.111C72.7344 39.2915 73.8739 39.5322 74.9535 39.7127" fill="#EB996E"/>
<path d="M74.1738 42.4806C74.1138 42.4204 73.574 42.8416 72.4945 42.7815C72.0147 42.7213 71.4149 42.5408 70.9351 42.0594C70.5153 41.578 70.2154 40.856 70.2754 40.1339C70.2754 39.9534 70.3354 39.7729 70.3953 39.5924C70.4553 39.4119 70.4553 39.4721 70.5753 39.4119C70.6952 39.4119 70.9351 39.4119 71.115 39.4721C71.295 39.4721 71.4749 39.4721 71.6548 39.5322C72.3745 39.5924 73.0342 39.6526 73.574 39.6526C74.6536 39.7127 75.3733 39.7127 75.3733 39.5924C75.3733 39.4721 74.7136 39.4119 73.634 39.2314C73.0942 39.1712 72.4345 39.0509 71.7148 38.9907C71.5349 38.9907 71.3549 38.9305 71.175 38.9305C70.9951 38.9305 70.8152 38.8703 70.5753 38.8703C70.4553 38.8703 70.2754 38.9305 70.1554 39.0509C70.0355 39.1712 69.9755 39.2915 69.9155 39.4119C69.8555 39.6526 69.7956 39.8331 69.7356 40.0738C69.6756 40.9763 70.0355 41.8789 70.5753 42.4204C71.175 42.962 71.8947 43.2026 72.4945 43.1425C73.0942 43.1425 73.5141 42.962 73.8139 42.7815C74.1138 42.6009 74.1738 42.4806 74.1738 42.4806Z" fill="#263238"/>
<path d="M77.1726 52.2283C77.1726 52.2283 71.1151 54.5148 65.2375 52.83C65.2375 52.83 69.6756 56.5606 77.7723 55.1165L77.1726 52.2283Z" fill="#EB996E"/>
<path d="M67.9364 138.513C67.9364 138.513 68.2362 138.273 68.776 137.851C69.0159 137.611 69.3758 137.37 69.7356 137.129C70.0955 136.828 70.5153 136.528 71.0551 136.167C71.5349 135.806 72.0747 135.444 72.7344 135.144C73.3342 134.783 73.9939 134.422 74.7136 134.061C76.153 133.399 77.7724 132.737 79.5116 132.195C81.2509 131.654 82.9902 131.353 84.5496 131.112C85.3293 131.052 86.049 130.932 86.7687 130.932C87.4884 130.872 88.1481 130.872 88.7479 130.872C89.3476 130.872 89.8874 130.932 90.3672 130.932C90.847 130.932 91.2668 130.992 91.5667 131.052C92.2265 131.112 92.5863 131.172 92.5863 131.112C92.5863 131.112 92.2265 131.052 91.5667 130.932C91.2069 130.872 90.847 130.811 90.3672 130.811C89.8874 130.751 89.3476 130.691 88.7479 130.691C88.1481 130.691 87.4884 130.631 86.7687 130.691C86.049 130.691 85.3293 130.811 84.4896 130.872C82.9302 131.052 81.191 131.413 79.3917 131.894C77.6524 132.436 76.0331 133.098 74.5937 133.82C73.8739 134.181 73.2142 134.542 72.6145 134.903C72.0147 135.264 71.4749 135.625 70.9951 135.986C70.5153 136.347 70.0955 136.648 69.6757 136.949C69.3158 137.25 69.0159 137.49 68.7161 137.731C68.1763 138.212 67.9364 138.513 67.9364 138.513Z" fill="#FAFAFA"/>
<path d="M103.202 107.585L98.284 86.2248C96.4247 78.1619 94.1457 70.46 90.4272 69.5574V72.0244L92.0465 133.098C92.0465 133.098 102.062 144.53 114.837 138.212C118.856 136.227 126.113 122.207 126.113 122.207C126.113 122.207 143.026 91.8808 142.366 90.4969C141.646 89.1129 131.33 75.755 130.251 75.033L103.202 107.585Z" fill="#FFD400"/>
<path d="M52.5826 63.5404C42.8066 65.4057 31.7711 71.1219 26.7332 85.8036C24.874 91.1588 11.4394 130.631 11.4394 130.631L34.4101 130.149L38.1285 122.026L36.3293 135.204L34.7699 154.037L92.7063 155L92.2864 126.599L91.7467 70.1592C91.7467 70.1592 91.0869 69.3168 81.131 63.781C74.8935 60.3513 52.5826 63.5404 52.5826 63.5404Z" fill="#FFD400"/>
<g opacity="0.2">
<g opacity="0.2">
<g opacity="0.2">
<path opacity="0.2" d="M46.765 101.267C45.8054 113.181 44.7258 116.852 43.7662 128.765C43.7063 129.909 43.5863 131.052 43.1665 132.075C42.7467 133.098 41.847 134.061 40.7675 134.241C39.0882 134.602 36.8691 135.805 36.3893 134.121L38.0086 122.628C38.0086 122.628 38.3684 120.462 39.568 117.814C43.1665 109.932 44.4859 109.451 46.765 101.267Z" fill="black"/>
</g>
</g>
</g>
<path d="M81.071 69.9185L80.8911 68.6549L79.0318 56.7411C78.9119 56.019 78.2521 55.5376 77.5324 55.5978L54.6818 57.5233C53.2423 57.6436 52.1628 58.9072 52.2827 60.3513L52.7625 67.271L59.8996 76.5974L70.1554 78.222" fill="#FFD400"/>
<path d="M92.5263 133.88C92.427 133.88 92.3464 124.559 92.3464 113.061C92.3464 101.563 92.427 92.2418 92.5263 92.2418C92.6257 92.2418 92.7063 101.563 92.7063 113.061C92.7063 124.559 92.6257 133.88 92.5263 133.88Z" fill="#263238"/>
<path d="M33.8703 132.015C33.8703 132.015 33.8703 131.955 33.9302 131.894C33.9902 131.774 34.0502 131.654 34.1102 131.473C34.2901 131.112 34.53 130.571 34.8299 129.909C35.4296 128.525 36.2693 126.539 37.3488 124.072C39.448 119.078 42.3268 112.279 45.5055 104.757C47.0649 100.967 48.5643 97.3564 49.9437 94.1071C50.6634 92.4825 51.1432 90.8579 51.4431 89.2935C51.743 87.729 51.8029 86.2248 51.8629 84.901C51.8629 82.1933 51.5031 80.0272 50.9633 78.5831C50.9033 78.4026 50.8433 78.222 50.7834 78.1017C50.7234 77.9814 50.6634 77.8009 50.6034 77.6805C50.4835 77.4398 50.3635 77.1991 50.2436 77.0186C50.1236 76.8381 50.0637 76.7178 50.0037 76.6576C49.9437 76.5974 49.8837 76.5373 49.8837 76.5373C49.8237 76.5373 50.3635 77.1991 50.9033 78.6432C51.3831 80.0272 51.743 82.1933 51.683 84.901C51.623 87.5485 51.2632 90.7977 49.7638 94.047C48.3843 97.2962 46.8849 100.906 45.2656 104.697C42.1469 112.219 39.2681 119.078 37.1689 124.072C36.1493 126.539 35.3097 128.525 34.7699 129.969C34.47 130.631 34.2901 131.172 34.1102 131.594C34.0502 131.774 33.9902 131.894 33.9302 132.015C33.8703 131.955 33.8703 132.015 33.8703 132.015Z" fill="#263238"/>
<path d="M45.4455 65.5862C45.4455 65.5862 45.6854 65.8269 46.1053 66.1879C46.5851 66.5489 47.3048 67.0303 48.2644 67.4515C49.284 67.8727 50.6034 68.2939 52.1028 68.5345C53.6622 68.7752 55.4015 68.9557 57.3807 69.0761C59.3599 69.1363 61.519 69.1363 63.798 69.1964C66.0771 69.2566 68.5361 69.3769 71.0551 70.099C73.5141 70.7609 76.093 72.0244 77.8923 74.1304C78.7919 75.2135 79.4517 76.4771 79.8115 77.861C80.1714 79.2449 80.1714 80.7492 79.7515 82.1933C79.5116 82.9154 79.1518 83.5171 78.732 84.1188C78.3121 84.6603 77.7124 85.1417 77.1126 85.5027C76.5129 85.8637 75.7932 85.9841 75.1334 85.9239C74.4737 85.8637 73.814 85.5027 73.3941 85.0213C72.4945 83.9984 72.3146 82.4942 72.4945 81.2306C72.6145 80.5687 72.7944 79.9068 73.0943 79.3653C73.3941 78.7636 73.754 78.222 74.1738 77.7407C75.7931 75.755 78.1322 74.6118 80.3513 74.0703C82.5704 73.5287 84.7895 73.6491 86.6487 74.1304C88.5679 74.6118 90.1273 75.394 91.4468 76.1762C92.7662 76.9585 93.8458 77.861 94.6255 78.5831C95.4651 79.3051 96.0049 79.9068 96.4247 80.328C96.6047 80.5085 96.7846 80.689 96.8446 80.8094C96.9645 80.9297 97.0245 80.9899 97.0245 80.9899C97.0245 80.9899 96.3048 80.0272 94.6854 78.5229C93.8458 77.8008 92.8262 76.8983 91.5067 76.0559C90.1873 75.2135 88.5679 74.4313 86.6487 73.9499C84.7295 73.4084 82.5104 73.288 80.2313 73.8296C77.9523 74.3711 75.6132 75.5144 73.9339 77.5602C73.5141 78.1017 73.1542 78.6432 72.8544 79.2449C72.5545 79.8467 72.3745 80.5085 72.2546 81.2306C72.1346 81.8925 72.1346 82.6145 72.3146 83.3366C72.4345 84.0586 72.7344 84.7205 73.2142 85.262C73.694 85.8036 74.4137 86.2248 75.1934 86.2849C75.9731 86.3451 76.6928 86.1646 77.3525 85.8036C78.0122 85.4425 78.612 84.9612 79.0918 84.3595C79.5716 83.7578 79.9315 83.0959 80.1714 82.3137C80.6512 80.8696 80.5912 79.3051 80.2313 77.861C79.8715 76.4169 79.2118 75.0932 78.2521 74.0101C76.3929 71.7838 73.754 70.5803 71.295 69.9185C68.776 69.2566 66.257 69.0761 63.978 69.0761C61.6389 69.0159 59.5398 69.0761 57.5606 69.0159C55.5814 68.9557 53.8421 68.7752 52.2827 68.5345C50.7234 68.2939 49.4639 67.9328 48.4443 67.5116C47.4247 67.0904 46.705 66.6091 46.2252 66.3082C45.9853 66.1277 45.8054 66.0074 45.6854 65.887C45.5055 65.6463 45.4455 65.5862 45.4455 65.5862Z" fill="#FAFAFA"/>
<path d="M25.5936 90.6172C25.5936 90.6172 25.6536 90.6172 25.8336 90.6774C26.0135 90.6774 26.2534 90.7376 26.5533 90.7376C27.213 90.7978 28.1126 90.7376 29.2522 90.6774C30.3917 90.6172 31.7711 90.4367 33.2705 90.196C34.7699 90.0155 36.3892 89.7748 38.1285 89.6545C39.8678 89.5943 41.5471 89.7147 42.9865 90.0155C44.426 90.3164 45.7454 90.8579 46.705 91.3995C48.6842 92.6029 49.4039 93.9266 49.4639 93.8063C49.4639 93.8063 49.4039 93.7461 49.3439 93.5656C49.224 93.4453 49.104 93.2046 48.9241 92.9639C48.5043 92.4825 47.8446 91.8207 46.8849 91.1588C45.9253 90.5571 44.6059 90.0155 43.1065 89.6545C41.6071 89.2935 39.9278 89.1731 38.1885 89.2333C36.4492 89.3536 34.7699 89.5943 33.2705 89.7748C31.7711 90.0155 30.4517 90.196 29.3121 90.3164C28.1726 90.4367 27.273 90.4969 26.6132 90.4969C25.9535 90.6172 25.5936 90.6172 25.5936 90.6172Z" fill="#FAFAFA"/>
<path d="M40.0478 117.574C40.0478 117.634 41.2473 117.153 43.4664 117.273C44.6059 117.333 45.9254 117.574 47.4847 117.995C49.0441 118.416 50.7234 119.018 52.6426 119.62C54.5618 120.221 56.721 120.763 59.12 120.763C61.519 120.763 64.038 120.281 66.497 119.259C68.956 118.236 71.295 116.551 73.2142 114.385C74.1738 113.302 75.0135 112.038 75.6132 110.654C76.213 109.27 76.5129 107.706 76.273 106.141C76.0331 104.577 75.3134 103.133 74.1139 102.11C73.5141 101.628 72.8544 101.207 72.0747 101.087C71.355 100.906 70.5753 100.967 69.8556 101.147C69.1359 101.328 68.4762 101.689 67.9364 102.23C67.3966 102.712 66.9768 103.373 66.8568 104.095C66.6769 104.818 66.7968 105.54 67.0367 106.201C67.2766 106.863 67.6965 107.465 68.1763 107.946C69.1359 108.909 70.2754 109.571 71.4749 110.052C72.0747 110.293 72.6744 110.474 73.2742 110.534C73.5741 110.594 73.8739 110.654 74.1738 110.714C74.4737 110.774 74.7736 110.774 75.0735 110.835C77.4125 111.075 79.6916 110.835 81.6108 110.353C83.59 109.872 85.2693 109.15 86.6487 108.428C88.0282 107.646 89.1677 106.863 90.0074 106.081C90.2473 105.901 90.4272 105.72 90.6071 105.54C90.787 105.359 90.967 105.179 91.0869 105.058C91.3868 104.757 91.6267 104.457 91.8066 104.276C91.9866 104.035 92.1065 103.915 92.2265 103.734C92.3464 103.614 92.3464 103.554 92.3464 103.554C92.3464 103.554 92.2864 103.614 92.1665 103.734C92.0465 103.855 91.9266 104.035 91.6867 104.216C91.5067 104.456 91.2668 104.697 90.907 104.998C90.7271 105.179 90.6071 105.299 90.4272 105.479C90.2473 105.66 90.0074 105.84 89.8274 106.021C88.9878 106.743 87.8482 107.525 86.4688 108.307C85.0894 109.029 83.4101 109.752 81.4309 110.173C79.5116 110.594 77.2926 110.835 74.9535 110.594C74.6536 110.534 74.3538 110.534 74.0539 110.474C73.754 110.413 73.4541 110.353 73.1542 110.293C72.5545 110.173 71.9547 109.992 71.415 109.812C70.2754 109.391 69.1359 108.729 68.2363 107.766C67.8164 107.285 67.3966 106.743 67.1567 106.141C66.9168 105.54 66.8568 104.878 67.0367 104.216C67.3366 102.892 68.4762 101.869 69.8556 101.508C70.5153 101.328 71.235 101.267 71.9547 101.448C72.6145 101.568 73.2742 101.929 73.814 102.411C74.8935 103.373 75.6132 104.757 75.8531 106.262C76.093 107.766 75.7332 109.27 75.1934 110.594C74.5937 111.978 73.814 113.181 72.8544 114.264C70.9951 116.43 68.6561 118.055 66.2571 119.078C63.858 120.161 61.3391 120.582 59 120.642C56.661 120.703 54.5019 120.161 52.5826 119.559C50.6634 118.958 48.9241 118.416 47.4248 117.995C45.8654 117.574 44.486 117.333 43.4064 117.333C42.8666 117.273 42.3268 117.333 41.907 117.333C41.4872 117.393 41.1273 117.453 40.8274 117.514C40.5276 117.574 40.3476 117.634 40.1677 117.694C40.1077 117.574 40.0478 117.574 40.0478 117.574Z" fill="#FAFAFA"/>
<path d="M92.7063 111.196C92.7662 111.196 93.0061 110.534 93.6059 109.571C94.2057 108.608 95.1053 107.285 96.3648 106.141C97.6243 104.938 99.0037 104.095 99.9633 103.614C100.983 103.073 101.643 102.892 101.643 102.832C101.643 102.832 101.463 102.832 101.163 102.952C100.863 103.012 100.443 103.193 99.9033 103.434C98.8238 103.915 97.4443 104.757 96.1848 105.961C94.8654 107.164 93.9657 108.488 93.426 109.511C93.1261 109.992 92.9462 110.474 92.8262 110.774C92.7662 111.015 92.7063 111.196 92.7063 111.196Z" fill="#FAFAFA"/>
<path d="M115.977 136.949C115.977 136.949 116.037 136.889 116.097 136.828C116.157 136.708 116.217 136.588 116.337 136.347C116.576 135.926 116.876 135.324 117.236 134.602C118.016 133.038 119.095 130.811 119.995 127.803C120.415 126.299 120.775 124.614 120.835 122.809C120.895 121.906 120.835 120.943 120.715 119.981C120.595 119.018 120.355 118.055 119.995 117.032C119.275 115.107 118.196 113.181 116.457 111.677C114.777 110.233 112.498 109.21 110.039 109.451C108.84 109.571 107.64 110.052 106.86 111.015C106.081 111.918 105.721 113.181 105.961 114.325C106.081 114.866 106.381 115.408 106.8 115.829C107.22 116.25 107.76 116.491 108.24 116.611C109.319 116.912 110.459 116.731 111.359 116.25C112.318 115.769 113.038 115.047 113.638 114.264C114.237 113.482 114.717 112.64 115.077 111.797C115.797 110.113 115.977 108.368 115.857 106.803C115.737 105.239 115.257 103.915 114.657 102.832C114.058 101.749 113.398 100.906 112.798 100.305C112.198 99.703 111.658 99.2818 111.239 99.0412C111.059 98.9208 110.879 98.8606 110.819 98.8005C110.879 98.6801 110.819 98.6801 110.819 98.6801C110.819 98.6801 110.999 98.8005 111.359 99.1013C111.718 99.342 112.258 99.7632 112.858 100.365C113.458 100.967 114.117 101.809 114.657 102.892C115.197 103.975 115.677 105.299 115.797 106.803C115.917 108.307 115.677 110.052 114.957 111.677C114.597 112.519 114.117 113.302 113.518 114.024C112.918 114.746 112.198 115.468 111.299 115.889C110.399 116.37 109.379 116.491 108.36 116.25C107.4 116.009 106.501 115.227 106.261 114.204C106.021 113.181 106.381 112.038 107.1 111.196C107.82 110.353 108.9 109.872 110.039 109.752C112.318 109.511 114.597 110.474 116.217 111.918C117.896 113.362 118.976 115.227 119.635 117.153C119.935 118.115 120.175 119.078 120.355 120.041C120.475 121.003 120.535 121.906 120.475 122.809C120.415 124.614 120.055 126.299 119.635 127.743C118.796 130.691 117.716 132.977 116.996 134.542C116.636 135.324 116.337 135.926 116.157 136.347C116.037 136.528 115.977 136.708 115.917 136.828C116.037 136.889 115.977 136.949 115.977 136.949Z" fill="#FAFAFA"/>
<path d="M123.414 83.8179C123.414 83.8179 123.414 83.8781 123.354 84.0586C123.354 84.2391 123.294 84.4798 123.294 84.7806C123.234 85.4425 123.234 86.3451 123.294 87.4883C123.474 89.7748 124.253 92.9037 126.233 95.8521C128.212 98.7403 130.911 100.666 132.95 101.628C133.969 102.11 134.869 102.411 135.469 102.591C135.769 102.712 136.009 102.712 136.189 102.772C136.368 102.832 136.428 102.832 136.428 102.832C136.428 102.832 136.129 102.712 135.529 102.471C134.929 102.29 134.089 101.929 133.07 101.388C131.091 100.365 128.452 98.4996 126.532 95.6716C124.553 92.8435 123.774 89.7147 123.534 87.4883C123.414 86.3451 123.414 85.4425 123.414 84.8408C123.414 84.1789 123.414 83.8179 123.414 83.8179Z" fill="#FAFAFA"/>
<path d="M20.3758 109.932C20.3158 109.992 21.5153 110.474 22.7148 112.038C23.3146 112.82 23.9143 113.843 24.5741 114.926C25.2338 116.009 26.1334 117.213 27.153 118.356C29.1922 120.582 31.5312 122.147 33.2705 122.989C34.1701 123.41 34.8899 123.711 35.4296 123.892C35.9694 124.072 36.2693 124.132 36.2693 124.132C36.2693 124.132 35.9694 124.012 35.4896 123.771C35.0098 123.531 34.2301 123.23 33.3905 122.748C31.6512 121.846 29.3721 120.281 27.3929 118.115C26.3733 117.032 25.5337 115.889 24.814 114.746C24.0943 113.663 23.4945 112.64 22.8348 111.858C22.235 111.075 21.5753 110.534 21.0955 110.233C20.8556 110.113 20.6757 109.992 20.5557 109.932C20.4357 109.932 20.3758 109.872 20.3758 109.932Z" fill="#FAFAFA"/>
<path d="M52.7625 64.2022C52.7625 64.2022 52.8825 64.2624 53.0624 64.2624C53.3023 64.3226 53.5422 64.3226 53.8421 64.3827C54.5618 64.5031 55.5214 64.6234 56.7809 64.8039C59.2999 65.165 62.7185 65.526 66.5569 65.8269C68.4761 65.9472 70.2754 66.0675 71.9547 66.0074C73.634 65.9472 75.1334 65.6463 76.3329 65.2853C77.5324 64.8641 78.4321 64.3226 79.0318 63.9616C79.3317 63.781 79.5116 63.6005 79.6915 63.42C79.8115 63.2997 79.8715 63.2395 79.8715 63.2395C79.8715 63.2395 79.5716 63.4802 78.9718 63.8412C78.3721 64.2022 77.4724 64.6836 76.2729 65.1048C75.0734 65.4658 73.634 65.7065 71.9547 65.7667C70.2754 65.8269 68.4761 65.7065 66.5569 65.526C62.7185 65.2251 59.2999 64.8641 56.7809 64.6234C55.5814 64.5031 54.5618 64.3828 53.8421 64.2624C53.1824 64.2022 52.7625 64.2022 52.7625 64.2022Z" fill="#263238"/>
<path d="M11.6793 134.843C9.7601 144.771 17.317 153.977 27.3329 154.037L72.7344 153.556L71.5349 138.814L32.6108 132.977" fill="#FFBE9D"/>
<path d="M68.776 139.476C68.9559 139.536 71.5949 138.393 73.9339 137.25C76.4529 136.106 79.1518 135.565 81.9107 135.685L92.7662 136.227C92.7662 136.227 92.1065 138.032 90.967 138.634C89.8274 139.295 83.1102 139.416 83.1102 139.416L83.47 139.777C84.9094 141.221 86.8287 142.063 88.8678 142.123H89.8874C90.6671 142.063 91.3868 141.943 92.1665 141.702L94.8654 140.619C95.6451 140.258 96.5447 140.318 96.9045 141.101C97.2044 141.823 96.9645 142.846 94.8054 143.989C93.5459 144.59 88.9878 146.215 88.9878 146.215C88.9878 146.215 88.9278 147.479 88.7479 148.141C88.5679 148.802 86.7687 149.464 86.7687 149.464C86.7687 149.464 85.6291 151.811 85.1493 152.352C84.9694 152.593 83.2901 153.075 81.6108 153.616C78.7919 154.398 75.8531 154.398 73.0943 153.556L68.9559 152.292V139.656" fill="#FFBE9D"/>
<path d="M83.59 147.719C83.59 147.779 84.8495 147.719 86.4088 147.298C87.9082 146.877 89.1077 146.335 89.0477 146.275C88.9878 146.215 87.8482 146.636 86.3488 147.057C84.8495 147.479 83.59 147.659 83.59 147.719Z" fill="#EB996E"/>
<path d="M84.0098 150.246C84.0098 150.307 84.7295 150.367 85.5092 150.126C86.3489 149.885 86.8886 149.524 86.8886 149.464C86.8287 149.404 86.2289 149.645 85.4492 149.885C84.6695 150.126 84.0098 150.186 84.0098 150.246Z" fill="#EB996E"/>
<path d="M82.0306 138.513C82.0306 138.513 82.3305 138.874 82.8703 139.416C83.41 139.957 84.2497 140.619 85.2093 141.221C86.2289 141.823 87.2485 142.123 87.9682 142.304C88.6879 142.484 89.1677 142.484 89.1677 142.424C89.1677 142.304 87.3085 142.123 85.3293 140.98C84.3697 140.378 83.53 139.777 82.9902 139.295C82.3905 138.754 82.0306 138.453 82.0306 138.513Z" fill="#EB996E"/>
<path d="M67.6964 137.49L68.776 154.158H25.9535C23.0747 154.158 20.1959 153.375 17.7369 151.871C11.9792 148.381 8.98043 141.642 10.2999 135.023C10.7197 132.316 11.7393 129.127 13.0588 125.757L34.59 129.307L33.9302 132.015L67.6964 137.49Z" fill="#FFD400"/>
<path d="M23.9743 130.631C23.9743 130.631 24.0943 130.691 24.3942 130.751C24.694 130.811 25.1139 130.872 25.6536 130.992C26.7932 131.172 28.3525 131.413 30.2718 131.774C34.1702 132.376 39.568 133.278 45.5055 134.181C51.4431 135.083 56.7809 135.926 60.7393 136.528C62.6585 136.828 64.2179 137.009 65.3574 137.189C65.8972 137.25 66.317 137.31 66.6169 137.37C66.9168 137.43 67.0367 137.43 67.0367 137.43C67.0367 137.43 66.9168 137.37 66.6169 137.31C66.317 137.25 65.8972 137.189 65.3574 137.069C64.2179 136.889 62.6585 136.648 60.7393 136.287C56.8409 135.685 51.4431 134.783 45.5055 133.88C39.568 132.977 34.2301 132.135 30.2718 131.533C28.3525 131.233 26.7932 131.052 25.6536 130.872C25.1139 130.811 24.694 130.751 24.3942 130.691C24.0943 130.631 23.9743 130.631 23.9743 130.631Z" fill="#263238"/>
<path d="M45.8654 154.218C45.9254 154.218 45.6255 153.014 45.5655 151.029C45.5655 150.547 45.5655 150.006 45.6255 149.404C45.6255 148.802 45.7454 148.201 45.8654 147.599C46.1653 146.335 46.5851 144.951 47.2448 143.628C47.9046 142.304 48.7442 141.101 49.5839 140.138C49.8238 139.897 50.0037 139.656 50.1836 139.416C50.3636 139.175 50.6035 138.995 50.8434 138.814C51.2632 138.393 51.683 138.092 52.0429 137.731C53.5423 136.528 54.6818 135.926 54.6218 135.866C54.6218 135.866 54.3219 135.986 53.8421 136.227C53.6022 136.347 53.3024 136.528 53.0025 136.768C52.7026 137.009 52.2828 137.25 51.9229 137.55C51.5631 137.851 51.0833 138.212 50.6634 138.573C50.4235 138.754 50.2436 138.995 50.0037 139.175C49.7638 139.416 49.5839 139.656 49.344 139.897C48.5043 140.92 47.6047 142.063 46.945 143.447C46.2852 144.831 45.8054 146.215 45.5655 147.479C45.4456 148.141 45.3256 148.742 45.3256 149.344C45.2656 149.946 45.2656 150.487 45.3256 150.969C45.3256 151.45 45.3856 151.931 45.4456 152.292C45.5055 152.714 45.5655 153.014 45.6255 153.315C45.7455 153.917 45.8654 154.218 45.8654 154.218Z" fill="#FAFAFA"/>
<path d="M19.836 152.954C19.836 152.954 20.5557 153.014 21.8152 152.713C22.4149 152.533 23.1946 152.352 24.0343 151.931C24.8739 151.51 25.7136 150.908 26.5532 150.066C27.3329 149.224 28.0526 148.08 28.4125 146.757C28.5924 146.095 28.7124 145.373 28.7124 144.651C28.7723 143.929 28.7124 143.146 28.5324 142.424C28.3525 141.642 28.1126 140.92 27.6328 140.198C27.213 139.536 26.6132 138.874 25.8335 138.453C25.1138 138.032 24.2142 137.791 23.3146 137.851C22.4149 137.911 21.5153 138.333 20.9755 139.055C20.3758 139.777 20.0759 140.679 20.1958 141.582C20.3158 142.484 20.9155 143.267 21.6952 143.688C23.1946 144.59 24.9339 144.59 26.4333 144.35C29.492 143.868 31.8911 142.003 33.1505 140.078C34.41 138.092 34.7699 136.167 34.7699 134.903C34.8299 133.579 34.59 132.917 34.59 132.917C34.53 132.917 34.7099 133.639 34.6499 134.903C34.59 136.167 34.2301 138.092 32.9706 139.957C31.7111 141.823 29.3721 143.628 26.4333 144.109C24.9939 144.35 23.3146 144.29 21.9351 143.507C21.2754 143.086 20.7356 142.424 20.6157 141.582C20.4957 140.8 20.7956 139.957 21.3354 139.295C21.8752 138.634 22.6548 138.273 23.4945 138.212C24.3341 138.152 25.1138 138.333 25.8335 138.754C27.2729 139.536 28.0526 141.04 28.4125 142.484C28.5924 143.207 28.6524 143.929 28.5924 144.651C28.5924 145.373 28.4725 146.035 28.2925 146.696C27.9327 148.02 27.2729 149.103 26.5532 149.946C25.7736 150.788 24.9339 151.39 24.1542 151.811C23.3745 152.232 22.5949 152.473 21.9951 152.653C20.5557 152.894 19.836 152.894 19.836 152.954Z" fill="#FAFAFA"/>
</g>
<defs>
<clipPath id="clip0">
<rect width="147" height="155" fill="white" transform="matrix(-1 0 0 1 157 0)"/>
</clipPath>
</defs>
</svg>
