<svg width="177" height="166" viewBox="0 0 177 166" fill="none" xmlns="http://www.w3.org/2000/svg">
<ellipse rx="80" ry="80.5" transform="matrix(-1 0 0 1 97 80.5)" fill="#F0F1F7"/>
<path d="M76.053 17.4854C76.729 19.2712 75.5613 21.2418 74.2092 22.6582C72.8571 24.0745 71.2591 25.3677 70.8289 27.2767C70.4601 28.8778 71.0747 30.4789 70.8904 32.1416C70.7674 33.8043 69.8455 35.2822 69.3539 36.8833C68.432 39.716 68.8007 42.8566 69.5997 45.7509C70.2758 48.091 71.2591 50.4311 72.9185 52.2785C74.5779 54.1259 76.9134 55.4191 79.3718 55.3575C80.0479 55.3575 80.8468 55.1728 81.2771 54.6801C81.6458 54.2491 81.7687 53.5717 81.8302 53.0174C83.2438 40.6397 83.2438 28.0773 81.8302 15.6996" fill="#263238"/>
<path d="M77.3436 57.4512C71.9966 57.2049 67.0798 62.3161 67.5101 67.6736C62.1016 68.9668 58.2911 74.9401 59.3359 80.4208C59.7047 82.2066 60.5037 83.9309 60.6266 85.7783C60.7495 87.8105 60.012 89.7195 59.6432 91.6901C58.9672 95.2617 59.3359 99.0182 60.688 102.405C61.5485 104.437 63.085 106.531 65.2975 106.593C66.7726 106.654 68.1861 105.669 68.9851 104.437C69.8455 103.206 70.2143 101.728 70.4601 100.25C71.4435 95.4465 71.6893 90.52 73.0414 85.7783C74.3321 81.0366 76.9134 76.4181 81.1541 74.0164C83.4896 72.6616 86.3168 72.0458 88.222 70.0753C90.1887 68.0431 90.6189 64.7793 89.6356 62.1314C88.5908 59.4834 86.2553 57.4512 83.6125 56.4659" fill="#263238"/>
<path d="M114.404 21.8576C114.465 19.5792 112.376 17.7933 110.225 16.9312C108.073 16.0691 105.738 15.7611 103.833 14.468C102.173 13.3595 101.006 11.5737 99.592 10.1573C96.0888 6.64721 90.6803 5.16928 85.8865 6.46247C81.0926 7.75567 77.1592 11.82 75.93 16.6233C75.131 19.8871 75.6841 23.7666 78.2654 25.922C81.2155 28.4468 85.6406 27.8925 89.4511 27.092C93.2616 26.2914 97.5638 25.5525 100.76 27.7694C102.665 29.1241 103.771 31.3411 104.939 33.3732C106.107 35.4054 107.582 37.4991 109.794 38.2381C112.007 38.9771 115.018 37.6839 115.141 35.3438" fill="#263238"/>
<path d="M105.369 22.3503C107.336 22.535 108.811 24.2593 108.811 26.2298L106.537 77.9576C106.414 84.0541 97.5024 87.5026 90.9876 87.3178C84.4114 87.1947 84.1656 83.9309 84.1041 78.1423C83.9812 68.4126 83.9812 64.7793 83.9812 64.8409C83.9812 64.8409 75.6841 63.4246 73.9633 52.5248C73.1028 47.1057 73.4101 38.2381 73.9018 30.9716C74.332 24.444 78.6957 16.4385 85.149 17.1159L105.369 22.3503Z" fill="#FFBE9D"/>
<path d="M75.6841 37.807C75.6841 38.5459 76.2372 39.1618 77.0362 39.2233C77.7737 39.2849 78.4498 38.7307 78.4498 37.9917C78.4498 37.2528 77.8967 36.6369 77.0977 36.5754C76.3602 36.5138 75.7456 37.068 75.6841 37.807Z" fill="#263238"/>
<path d="M75.7456 35.5901C75.93 35.7749 76.9748 34.9743 78.4498 34.9743C79.9248 34.9743 81.0311 35.7133 81.2155 35.5285C81.277 35.467 81.0926 35.0975 80.6624 34.7896C80.1707 34.4201 79.3717 34.1122 78.4498 34.1122C77.5279 34.1122 76.7289 34.4817 76.2987 34.7896C75.807 35.2206 75.6841 35.5285 75.7456 35.5901Z" fill="#263238"/>
<path d="M90.1272 37.8071C90.1272 38.546 90.6804 39.1618 91.4793 39.2234C92.2169 39.285 92.8929 38.7308 92.8929 37.9918C92.8929 37.2528 92.3398 36.637 91.5408 36.5754C90.8033 36.5139 90.1272 37.0681 90.1272 37.8071Z" fill="#263238"/>
<path d="M90.4959 35.9596C90.6803 36.1444 91.7251 35.3438 93.2002 35.3438C94.6752 35.3438 95.7815 36.0828 95.9659 35.8981C96.0273 35.8365 95.8429 35.467 95.4127 35.1591C94.921 34.7896 94.1221 34.4817 93.2002 34.4817C92.2783 34.4817 91.4793 34.8512 91.0491 35.1591C90.5574 35.5286 90.4345 35.8365 90.4959 35.9596Z" fill="#263238"/>
<path d="M85.026 47.0441C85.026 46.9825 84.1041 46.7978 82.5676 46.6131C82.1988 46.5515 81.8301 46.4899 81.7686 46.2436C81.7071 45.9357 81.8301 45.5662 82.0144 45.1351C82.3832 44.2114 82.7519 43.2261 83.1822 42.2408C84.7801 38.0533 85.8864 34.6664 85.7635 34.6048C85.5791 34.5432 84.1655 37.8686 82.5676 41.9945C82.1988 43.0414 81.8301 44.0267 81.4613 44.9504C81.3384 45.3814 81.0925 45.8741 81.2769 46.4283C81.3998 46.7362 81.6457 46.921 81.8915 46.9825C82.1374 47.0441 82.3217 47.0441 82.5676 47.0441C84.0426 47.1673 85.026 47.1673 85.026 47.0441Z" fill="#263238"/>
<path d="M83.9197 64.8409C83.9197 64.8409 91.2334 65.3336 98.4857 60.9613C98.4857 60.9613 94.921 68.4126 84.0426 67.3657L83.9197 64.8409Z" fill="#EB996E"/>
<path d="M85.6406 50.6774C86.1938 49.9384 87.1157 49.5689 88.0376 49.6921C88.7136 49.7537 89.3282 50.0616 89.7585 50.6158C90.1272 51.17 90.2501 51.909 89.8814 52.4016C89.4512 52.9558 88.6522 53.079 87.9147 52.8943C87.1771 52.7095 86.5625 52.2169 86.0094 51.7242C85.825 51.6011 85.7021 51.4779 85.5792 51.2932C85.4563 51.1084 85.4563 50.8621 85.5792 50.7389" fill="#EB996E"/>
<path d="M89.4511 48.091C89.2053 48.091 89.2052 49.6921 87.7917 50.8622C86.3781 52.0322 84.6572 51.8474 84.6572 52.0322C84.6572 52.1553 85.026 52.3401 85.7635 52.4017C86.501 52.4017 87.5458 52.2169 88.4063 51.478C89.2667 50.8006 89.6355 49.8153 89.6969 49.1379C89.6969 48.5221 89.574 48.091 89.4511 48.091Z" fill="#263238"/>
<path d="M89.8199 33.3116C89.9428 33.7427 91.4793 33.5579 93.2002 33.7427C94.9825 33.9274 96.3961 34.4201 96.6419 34.0506C96.7648 33.8658 96.519 33.4964 95.9044 33.0653C95.3513 32.6958 94.4294 32.2647 93.3845 32.1416C92.3397 32.0184 91.3564 32.2032 90.7418 32.4495C90.0657 32.7574 89.7584 33.1269 89.8199 33.3116Z" fill="#263238"/>
<path d="M76.2987 31.2795C76.5446 31.649 77.5894 31.2795 78.8186 31.2795C80.0478 31.2179 81.0926 31.5258 81.3384 31.1563C81.4613 30.9716 81.277 30.6637 80.8467 30.2942C80.4165 29.9863 79.6175 29.6784 78.7571 29.74C77.8967 29.74 77.1591 30.0479 76.7289 30.4173C76.3602 30.7252 76.1758 31.0947 76.2987 31.2795Z" fill="#263238"/>
<path d="M112.929 58.1902C109.917 58.806 106.66 57.8823 104.447 55.7886C102.235 53.6949 101.067 50.4927 101.436 47.4752C101.743 44.8272 103.218 42.0561 102.296 39.5313C101.067 36.2059 96.396 35.1591 95.1668 31.8337C94.4293 29.8631 95.1054 27.6462 94.2449 25.7372C93.4459 23.9514 91.6022 22.9045 89.7584 22.2271C87.9146 21.5497 85.9479 21.1187 84.4114 19.8871C82.8749 18.6555 81.8915 16.4386 82.9363 14.7759C91.1105 15.7612 99.1002 17.7318 106.721 20.5645C108.504 21.2418 110.347 22.0424 111.392 23.5819C112.498 25.2446 112.437 27.3999 112.376 29.4321C111.945 39.2234 113.42 48.3989 112.929 58.1902Z" fill="#263238"/>
<path d="M115.572 55.1112C115.572 55.1112 115.633 55.1112 115.756 55.0496C115.879 54.988 116.063 54.9264 116.248 54.8033C116.678 54.5569 117.231 54.0643 117.6 53.2022C117.969 52.34 118.214 51.17 117.969 49.8768C117.723 48.5836 116.985 47.2289 116.002 45.9357C115.018 44.5809 113.851 43.2877 112.99 41.5634C112.56 40.7013 112.253 39.7776 112.253 38.7307C112.253 37.7454 112.56 36.6986 112.867 35.7133C113.236 34.6664 113.543 33.6195 113.482 32.4495C113.42 31.2795 113.113 30.1094 112.499 29.0626C111.884 28.0157 111.024 27.092 109.979 26.4762C108.934 25.7988 107.643 25.5525 106.414 25.4293C105.185 25.3061 103.956 25.2446 102.849 24.8135C101.743 24.444 100.883 23.5819 100.33 22.535C99.7764 21.5497 99.4691 20.3797 99.1618 19.3328C98.8545 18.2244 98.4243 17.1775 97.9326 16.1922C96.9493 14.2832 95.5357 12.6205 93.8763 11.5737C92.2169 10.5268 90.3731 10.0957 88.7137 10.2189C87.0542 10.342 85.6407 10.9579 84.6573 11.8816C83.674 12.8053 83.1208 13.7906 82.8135 14.6527C82.5062 15.5148 82.5062 16.2538 82.5677 16.7464C82.6291 17.2391 82.6906 17.4854 82.6906 17.4854C82.6906 17.4854 82.6291 17.2391 82.6291 16.7464C82.6291 16.2538 82.6291 15.5764 82.9364 14.7143C83.2437 13.8521 83.7969 12.8669 84.7802 12.0047C85.7021 11.1426 87.1157 10.5268 88.7137 10.4036C90.3116 10.2805 92.094 10.7115 93.6919 11.7584C95.2899 12.7437 96.642 14.3448 97.6253 16.2538C98.117 17.1775 98.4858 18.2244 98.7931 19.3328C99.1004 20.4413 99.4077 21.5497 100.022 22.5966C100.33 23.1508 100.637 23.6435 101.129 24.0745C101.559 24.5056 102.112 24.8135 102.726 25.0598C103.894 25.4909 105.185 25.5525 106.414 25.7372C107.643 25.8604 108.872 26.1067 109.856 26.7225C110.901 27.3383 111.7 28.2004 112.314 29.1857C112.929 30.171 113.236 31.2795 113.298 32.3879C113.359 33.4964 113.052 34.5432 112.683 35.5901C112.376 36.637 112.007 37.6838 112.068 38.7307C112.068 39.7776 112.437 40.7629 112.806 41.625C113.666 43.4109 114.896 44.704 115.817 46.0588C116.801 47.352 117.538 48.6452 117.784 49.9384C118.03 51.17 117.846 52.34 117.477 53.1406C117.108 53.9411 116.616 54.4954 116.186 54.7417C115.817 54.988 115.51 55.0496 115.572 55.1112Z" fill="#455A64"/>
<path d="M83.9813 7.63252C83.9813 7.63252 83.7969 7.63252 83.551 7.75568C83.3052 7.87885 82.9364 8.06359 82.5062 8.37149C81.7073 8.9873 80.7854 10.1573 80.5395 11.7584C80.2937 13.3595 80.8468 14.7759 81.4614 15.5764C81.7687 16.0075 82.0145 16.3154 82.2604 16.5001C82.5062 16.6849 82.6292 16.7465 82.6292 16.7465C82.6906 16.6849 82.1375 16.3154 81.6458 15.4533C81.1541 14.6527 80.6624 13.2979 80.8468 11.82C81.0927 10.3421 81.8916 9.17204 82.6292 8.55623C83.3667 7.87885 83.9813 7.6941 83.9813 7.63252Z" fill="#455A64"/>
<path d="M59.889 82.3298C59.9505 82.3298 59.7046 81.9604 59.5817 81.1598C59.4588 80.4208 59.5202 79.2508 60.1348 78.0192C60.688 76.7876 61.9172 75.6176 63.5766 74.817C64.3756 74.4475 65.2974 74.078 66.2193 73.8933C67.2027 73.647 68.1861 73.4622 69.2309 73.0928C70.2142 72.7848 71.259 72.2922 71.9966 71.6148C72.7955 70.8758 73.1028 69.8906 73.2872 69.0284C73.4716 68.1047 73.5331 67.2426 73.7174 66.442C73.9018 65.6415 74.2706 65.0257 74.7008 64.4715C75.5612 63.4246 76.606 62.9319 77.3436 62.6856C78.0811 62.4393 78.5113 62.4393 78.5113 62.4393C78.5113 62.4393 78.3884 62.4393 78.204 62.4393C78.0196 62.4393 77.7123 62.5009 77.3436 62.5625C76.606 62.7472 75.4998 63.2398 74.5779 64.3483C74.1476 64.9025 73.7174 65.5799 73.5331 66.3805C73.2872 67.181 73.2258 68.0431 73.1028 68.9668C72.9185 69.829 72.6112 70.7527 71.8736 71.4301C71.1976 72.1075 70.2142 72.5385 69.2309 72.8464C68.2475 73.1543 67.2027 73.4007 66.2808 73.647C65.2974 73.8933 64.3756 74.2012 63.5766 74.6323C61.9172 75.4328 60.6265 76.726 60.0734 78.0192C59.4588 79.3124 59.4588 80.4824 59.6431 81.283C59.7046 81.6525 59.8275 81.9604 59.9504 82.1451C59.8275 82.2683 59.889 82.3914 59.889 82.3298Z" fill="#455A64"/>
<path d="M107.152 63.0551C112.683 61.5772 117.415 56.1581 119.321 50.8006C121.226 45.443 121.226 39.5313 120.734 33.8659C120.366 29.74 119.628 25.3678 116.924 22.2887C112.806 17.6086 108.319 15.2069 102.112 15.3917" fill="#263238"/>
<path d="M75.0082 75.0633L80.1709 73.7701C78.9417 72.7848 78.6344 71.5532 79.126 70.1984C79.7406 68.5357 81.3386 67.4889 83.0595 67.3041L106.476 64.6562C107.336 64.533 108.135 65.0256 108.442 65.8262C109.487 68.4742 109.487 70.6295 108.565 72.3537H108.688L113.175 73.2775L120.796 140.831L70.7061 138.491L75.0082 75.0633Z" fill="#F5F5F5"/>
<path d="M82.3835 74.078C82.3835 74.078 82.6908 74.1396 83.3054 74.2627C83.92 74.3859 84.7805 74.4475 85.8867 74.5706C88.0993 74.7554 91.1108 74.9401 94.4911 74.7554C97.8714 74.5706 100.883 74.1396 103.034 73.7085C104.14 73.5238 105.001 73.2774 105.554 73.1543C106.168 72.9695 106.476 72.9079 106.476 72.9079C106.476 72.9079 106.107 72.9695 105.554 73.0311C104.939 73.1543 104.079 73.339 102.973 73.5238C100.821 73.8932 97.8099 74.3243 94.4297 74.4475C91.1108 74.6322 88.0378 74.509 85.8867 74.3859C84.7805 74.3243 83.92 74.2627 83.3054 74.2011C82.6908 74.0164 82.3835 74.0164 82.3835 74.078Z" fill="#263238"/>
<path d="M102.99 82.0876C101.953 80.532 101.181 79.2251 101.266 79.1684C101.351 79.1118 102.26 80.3269 103.296 81.8824C104.333 83.438 105.105 84.7449 105.02 84.8016C104.935 84.8582 104.026 83.6431 102.99 82.0876Z" fill="#E0E0E0"/>
<path d="M88.8688 85.9697C88.7894 85.9057 89.6732 84.6721 90.8428 83.2141C92.0124 81.7562 93.0249 80.6262 93.1043 80.6901C93.1836 80.754 92.2998 81.9877 91.1302 83.4456C89.9606 84.9035 88.9481 86.0336 88.8688 85.9697Z" fill="#E0E0E0"/>
<path d="M96.34 94.5254C96.2398 94.5076 96.4282 92.9732 96.7609 91.098C97.0937 89.2228 97.4447 87.7171 97.545 87.7348C97.6453 87.7525 97.4569 89.2869 97.1241 91.1621C96.7914 93.0373 96.4403 94.5431 96.34 94.5254Z" fill="#E0E0E0"/>
<path d="M86.8634 98.1005C85.2431 96.5016 83.9874 95.1464 84.0589 95.0737C84.1303 95.001 85.5018 96.2383 87.1222 97.8372C88.7426 99.4362 89.9982 100.791 89.9267 100.864C89.8553 100.937 88.4838 99.6994 86.8634 98.1005Z" fill="#E0E0E0"/>
<path d="M100.576 106.593C100.637 106.654 102.112 105.73 103.649 104.129C105.124 102.528 105.984 100.989 105.923 100.927C105.861 100.866 104.878 102.343 103.403 103.883C101.928 105.484 100.514 106.469 100.576 106.593Z" fill="#E0E0E0"/>
<path d="M95.2901 115.46C95.2901 115.583 96.7037 116.014 98.3016 116.877C99.8996 117.739 101.129 118.662 101.19 118.601C101.252 118.539 100.145 117.492 98.486 116.63C96.7651 115.706 95.2901 115.399 95.2901 115.46Z" fill="#E0E0E0"/>
<path d="M86.6242 116.014C86.6857 116.014 87.0544 115.645 87.6076 114.968C88.1607 114.29 88.9597 113.305 89.6972 112.196C90.4962 111.088 91.1722 110.041 91.6025 109.302C92.0327 108.563 92.34 108.071 92.2785 108.009C92.2171 108.009 91.9098 108.44 91.4181 109.179C90.8649 109.98 90.1889 110.965 89.4514 112.012C88.7138 113.059 88.0378 113.982 87.4232 114.783C86.9315 115.583 86.5628 116.014 86.6242 116.014Z" fill="#E0E0E0"/>
<path d="M85.7638 123.589C85.7638 123.65 87.3618 124.081 89.4514 124.451C91.541 124.82 93.2004 124.882 93.2004 124.82C93.2004 124.759 91.541 124.451 89.4514 124.143C87.4232 123.835 85.7638 123.527 85.7638 123.589Z" fill="#E0E0E0"/>
<path d="M99.7151 73.0927C99.7766 73.0311 99.4693 72.7232 99.2235 72.0458C98.9776 71.43 98.7932 70.4447 98.9776 69.3978C99.1005 68.351 99.4693 67.4273 99.7766 66.7499C100.022 66.0725 100.207 65.703 100.207 65.6414C100.145 65.6414 99.8995 66.0109 99.5922 66.6267C99.2849 67.2425 98.8547 68.1662 98.6703 69.2747C98.4859 70.3831 98.7318 71.43 99.0391 72.1074C99.3464 72.8464 99.7151 73.0927 99.7151 73.0927Z" fill="#E0E0E0"/>
<path d="M90.3733 68.0431C90.3118 67.9815 89.7587 68.8437 89.4514 70.0753C89.1441 71.3069 89.3284 72.2922 89.3899 72.2922C89.5128 72.2922 89.5128 71.3069 89.7587 70.1368C90.066 68.9668 90.4962 68.1047 90.3733 68.0431Z" fill="#E0E0E0"/>
<path d="M48.2118 116.199L24.9185 75.1864L22.0914 68.1047C22.0914 68.1047 14.8391 52.4632 14.3475 50.8621C13.7329 49.0147 12.7495 48.8915 12.0734 49.1378C11.0286 49.5689 10.7213 51.1084 11.1516 52.7095C11.3359 53.2637 14.1016 61.8234 14.1016 61.8234C14.1016 61.8234 13.487 61.2076 11.7047 60.0376C9.92235 58.806 6.66498 58.8676 3.59199 59.976C0.58046 61.0845 -0.21851 61.6387 0.150246 62.8087C0.273167 63.3014 0.703381 63.6093 1.1336 63.794C1.87112 64.1019 2.67009 64.1019 3.40761 63.8556C8.26294 62.1929 10.4755 64.4098 10.4755 64.4098L10.8442 65.3335C10.8442 65.3335 7.15667 64.1635 5.06703 65.8262C4.69827 66.0725 4.51389 66.3804 4.32951 66.6883C3.03885 67.1194 1.99404 68.2278 1.68674 69.5826C1.37944 70.999 1.80966 72.5385 2.85448 73.5238C3.34615 74.0164 4.08367 74.3243 4.69827 74.0164C5.00557 73.8317 5.18995 73.5238 5.37433 73.2159C5.49725 73.0311 5.55871 72.908 5.68163 72.7232L7.0952 75.1864C7.0952 75.1864 10.5369 80.544 11.7661 83.0688L27.8072 125.867C30.0197 131.779 36.6574 134.735 42.5575 132.456C48.9493 129.808 51.5921 122.172 48.2118 116.199Z" fill="#FFBE9D"/>
<path d="M23.3205 75.0633C22.5215 75.6175 21.3538 75.248 20.6163 74.5706C19.8788 73.9548 19.3871 73.0311 18.6496 72.3537C16.5599 70.26 13.1182 70.0752 11.1515 67.9199C10.9057 67.612 10.6598 67.181 10.8442 66.8115C11.09 66.5036 11.5203 66.5651 11.889 66.6267C15.0849 67.2425 18.2194 67.8583 21.4153 68.5357" fill="#FFBE9D"/>
<path d="M21.4144 68.5357C21.4144 68.4741 21.0457 68.4125 20.4311 68.2278C19.755 68.0431 18.8331 67.8583 17.6654 67.612C16.4362 67.3657 15.0226 67.0578 13.4861 66.7499C13.1174 66.6883 12.6871 66.5651 12.2569 66.5035C11.8882 66.442 11.3965 66.1956 10.7819 66.5651C10.4746 66.7499 10.4131 67.1809 10.4746 67.4273C10.536 67.7352 10.659 67.9199 10.8434 68.1046C11.1506 68.4741 11.5194 68.782 11.8882 69.0284C13.4861 70.1368 15.207 70.5679 16.6206 71.3068C17.2966 71.6763 17.9112 72.0458 18.4029 72.5384C18.8946 73.0311 19.2633 73.5853 19.6935 74.0164C20.4925 75.0017 21.4759 75.4943 22.2134 75.4327C22.9509 75.4327 23.2582 75.0632 23.1968 75.0632C23.1968 75.0017 22.828 75.248 22.2134 75.1864C21.5373 75.1248 20.6769 74.6938 20.0008 73.7085C19.6321 73.2774 19.2633 72.6616 18.7102 72.169C18.2185 71.6147 17.5425 71.1837 16.8049 70.8142C15.3914 70.0136 13.6705 69.5826 12.1955 68.5357C11.8267 68.2894 11.5194 67.9815 11.2121 67.6736C10.9663 67.3657 10.8434 66.9962 11.0277 66.9346C11.2121 66.8114 11.6423 66.873 12.0725 66.9346C12.5028 66.9962 12.8715 67.1194 13.3017 67.1809C14.8382 67.4888 16.2518 67.7352 17.481 67.9199C18.6487 68.1046 19.6321 68.2894 20.3081 68.4125C21.0457 68.5357 21.4144 68.5357 21.4144 68.5357Z" fill="#EB996E"/>
<path d="M10.9671 65.272C10.9056 65.3335 10.7827 64.533 9.86081 63.794C9.43059 63.4245 8.75454 63.1782 8.01702 63.1782C7.27951 63.1782 6.41907 63.363 5.55863 63.6093C4.6982 63.8556 3.83777 64.1019 3.03879 64.1635C2.23982 64.2251 1.5023 64.1019 0.94916 63.8556C0.396022 63.5477 0.0887241 63.0551 0.0272646 62.7472C-0.0341949 62.3777 0.0272646 62.1929 0.0272646 62.1929C0.0887241 62.1929 0.0887318 62.3777 0.150191 62.6856C0.211651 62.9935 0.518946 63.363 1.01062 63.6093C1.5023 63.8556 2.23981 63.9172 2.97733 63.8556C3.71485 63.794 4.51383 63.5477 5.37426 63.3014C6.2347 63.0551 7.09513 62.8703 7.8941 62.9319C8.69308 62.9935 9.43059 63.2398 9.86081 63.6709C10.3525 64.1019 10.5983 64.533 10.6598 64.8409C10.9671 65.0872 10.9671 65.272 10.9671 65.272Z" fill="#EB996E"/>
<path d="M10.9671 52.0321C11.0286 52.0321 11.213 52.6479 11.5203 53.7564C11.889 54.9264 12.3193 56.3428 12.8109 57.8823C13.3026 59.4218 13.7943 60.8382 14.163 62.0082C14.5318 63.0551 14.7162 63.7324 14.6547 63.7324C14.5933 63.7324 14.286 63.1166 13.9172 62.0698C13.487 61.0229 12.9953 59.6065 12.5036 57.9439C12.012 56.3428 11.5817 54.8648 11.3359 53.7564C11.0286 52.7095 10.9057 52.0321 10.9671 52.0321Z" fill="#EB996E"/>
<path d="M9.61499 67.7968C9.61499 67.7968 9.43061 67.7968 9.06186 67.7352C8.6931 67.7352 8.13995 67.6736 7.70973 68.1047C7.52535 68.2894 7.40244 68.5973 7.4639 68.9668C7.52536 69.3363 7.70974 69.6442 7.89411 70.0753C8.07849 70.4447 8.26288 70.9374 8.13996 71.4916C8.01704 71.9843 7.58682 72.4153 7.03368 72.6001C6.48054 72.7848 5.92741 72.6616 5.49719 72.4769C5.06697 72.2306 4.69821 71.9227 4.45237 71.4916C4.08361 70.6911 3.89923 69.9521 3.77631 69.2747C3.65339 68.5973 3.65339 68.1047 3.77631 67.7352C3.83777 67.3657 3.96069 67.181 4.02215 67.181C4.02215 67.181 3.96069 67.3657 3.96069 67.7352C3.89923 68.1047 3.96069 68.5973 4.08361 69.2131C4.20653 69.8289 4.39091 70.5679 4.82113 71.3069C5.18989 71.9843 6.11178 72.5385 6.97222 72.2922C7.40244 72.169 7.70974 71.7995 7.83266 71.43C7.95558 71.0605 7.83266 70.6295 7.64828 70.26C7.4639 69.8905 7.27952 69.521 7.21806 69.09C7.1566 68.6589 7.27952 68.2278 7.52536 67.9815C8.0785 67.4889 8.6931 67.612 9.06186 67.6736C9.43061 67.7352 9.61499 67.7968 9.61499 67.7968Z" fill="#EB996E"/>
<path d="M5.62019 72.169C5.62019 72.169 5.7431 72.3537 5.7431 72.6616C5.7431 72.9695 5.55873 73.5237 5.00559 73.8932C4.51391 74.2627 3.65348 74.3243 2.91596 73.8932C2.17844 73.5237 1.6253 72.7848 1.37946 71.9227C1.07217 71.0605 1.13363 70.1368 1.37946 69.3978C1.6253 68.6589 2.05552 68.0431 2.5472 67.6736C2.97742 67.3041 3.40763 67.0578 3.71493 66.9346C4.02223 66.8115 4.20661 66.8115 4.20661 66.8115C4.20661 66.873 3.53055 67.0578 2.67011 67.7967C2.30136 68.1662 1.87114 68.7205 1.68676 69.4594C1.50238 70.1368 1.44092 70.9989 1.68676 71.7995C1.9326 72.6 2.42428 73.2774 3.03888 73.5853C3.65347 73.9548 4.39099 73.8932 4.82121 73.6469C5.25142 73.4006 5.49726 72.9079 5.55872 72.6616C5.62018 72.3537 5.55873 72.169 5.62019 72.169Z" fill="#EB996E"/>
<path d="M13.364 75.987C13.364 75.987 13.6713 75.8022 14.163 75.7407C14.7162 75.6791 15.5151 75.7407 16.3141 76.2333L16.0683 76.418C16.0068 76.0486 15.9454 75.6175 15.8839 75.1864C15.6995 72.7848 16.437 70.9989 16.4985 70.9989C16.6214 70.9989 16.0068 72.8464 16.2527 75.1248C16.3141 75.5559 16.3141 75.9254 16.437 76.2949L16.4985 76.726L16.1912 76.4796C15.5151 76.0486 14.7776 75.9254 14.2245 75.9254C13.6713 75.987 13.364 76.0486 13.364 75.987Z" fill="#EB996E"/>
<path d="M8.50876 61.3923C8.63168 61.3923 8.44731 62.1313 7.83271 62.6855C7.15666 63.2397 6.4806 63.3013 6.4806 63.1782C6.4806 63.055 7.0952 62.8703 7.64833 62.3776C8.14001 61.9466 8.4473 61.3923 8.50876 61.3923Z" fill="#EB996E"/>
<path d="M81.2772 150.192L56.9391 150.438L61.0569 132.703L59.7048 136.028C57.1235 142.371 50.9775 146.435 44.1554 146.435C36.473 146.435 31.126 140.708 27.8686 133.688C20.2476 117.308 12.8724 91.0127 12.8724 91.0127L27.7457 77.9576C38.5011 98.3408 48.5805 116.014 48.5805 116.014C48.5805 116.014 51.4692 107.147 53.7432 99.2029C56.0172 91.259 55.9557 87.1331 59.4589 83.1303C64.8059 77.0339 72.3655 75.5559 79.4334 73.7085L79.6792 106.593L81.2772 150.192Z" fill="#FFD400"/>
<path d="M109.118 125.683L64.7444 134.365L62.5933 151.423H130.629C138.496 151.546 144.765 144.834 144.15 136.952C143.167 124.513 142.122 109.179 141.323 102.713C140.709 97.6634 138.681 92.4291 136.284 87.9337C132.842 81.4677 121.41 73.1543 111.392 72.7233L109.487 115.091" fill="#FFD400"/>
<g opacity="0.4">
<g opacity="0.4">
<g opacity="0.4">
<g opacity="0.4">
<g opacity="0.4">
<g opacity="0.4">
<path opacity="0.4" d="M81.2772 150.192L56.9391 150.438L61.0569 132.703L59.7048 136.028C57.1235 142.371 50.9775 146.435 44.1554 146.435C36.473 146.435 31.126 140.708 27.8686 133.688C20.2476 117.308 12.8724 91.0127 12.8724 91.0127L27.7457 77.9576C38.5011 98.3408 48.5805 116.014 48.5805 116.014C48.5805 116.014 51.4692 107.147 53.7432 99.2029C56.0172 91.259 55.9557 87.1331 59.4589 83.1303C64.8059 77.0339 72.3655 75.5559 79.4334 73.7085L79.6792 106.593L81.2772 150.192Z" fill="black"/>
</g>
</g>
</g>
</g>
<g opacity="0.4">
<g opacity="0.4">
<g opacity="0.4">
<g opacity="0.4">
<path opacity="0.4" d="M109.118 125.683L69.1081 133.011C67.4487 133.319 66.0965 134.612 65.7893 136.274L62.5933 151.423H130.629C138.496 151.546 144.765 144.834 144.15 136.952C143.167 124.513 142.122 109.179 141.323 102.713C140.709 97.6634 138.681 92.4291 136.284 87.9337C132.842 81.4677 121.41 73.1543 111.392 72.7233L109.487 115.091" fill="black"/>
</g>
</g>
</g>
</g>
</g>
</g>
<path d="M117.6 124.451C117.6 124.451 117.6 124.328 117.6 124.02C117.6 123.712 117.6 123.343 117.6 122.85C117.6 121.803 117.6 120.325 117.6 118.539C117.6 114.906 117.661 109.918 117.969 104.437C118.091 101.666 118.276 99.0798 118.46 96.6781C118.645 94.2765 118.829 92.1211 119.382 90.3969C119.874 88.6726 120.673 87.3794 121.349 86.702C122.025 85.9631 122.517 85.7168 122.517 85.6552C122.517 85.6552 121.963 85.9015 121.226 86.5789C120.488 87.2563 119.689 88.5495 119.136 90.3353C118.583 92.0596 118.337 94.2765 118.153 96.6165C117.969 99.0182 117.784 101.605 117.6 104.376C117.293 109.918 117.293 114.906 117.354 118.539C117.415 120.325 117.415 121.803 117.477 122.85C117.477 123.343 117.538 123.712 117.538 124.02C117.538 124.328 117.538 124.451 117.6 124.451Z" fill="#263238"/>
<path d="M65.6049 135.536C65.6663 135.597 66.0351 134.92 67.2028 134.242C67.756 133.934 68.5549 133.565 69.4768 133.319C70.3987 133.072 71.4436 132.826 72.6728 132.58C77.4052 131.594 83.9814 130.24 91.2336 128.885C98.4859 127.53 105.062 126.422 109.856 125.683C112.253 125.313 114.158 125.005 115.51 124.759C116.186 124.636 116.678 124.574 117.047 124.513C117.415 124.451 117.6 124.389 117.6 124.389C117.6 124.389 117.415 124.389 117.047 124.451C116.678 124.513 116.125 124.574 115.51 124.636C114.158 124.82 112.253 125.067 109.856 125.436C105.062 126.175 98.4859 127.222 91.1721 128.577C83.9199 129.932 77.3437 131.348 72.6113 132.333C71.4436 132.58 70.3373 132.826 69.4154 133.072C68.4935 133.38 67.6945 133.688 67.1414 134.058C66.5268 134.427 66.158 134.797 65.9122 135.043C65.7893 135.166 65.7278 135.289 65.6663 135.351C65.6049 135.536 65.6049 135.536 65.6049 135.536Z" fill="#263238"/>
<path d="M117.415 124.451C117.415 124.513 118.214 124.697 119.505 125.19C120.12 125.436 120.857 125.806 121.656 126.237C122.455 126.729 123.254 127.284 124.053 127.9C124.852 128.577 125.528 129.316 126.143 129.993C126.696 130.671 127.188 131.348 127.556 131.902C128.294 133.072 128.601 133.873 128.663 133.811C128.663 133.811 128.601 133.627 128.478 133.257C128.355 132.888 128.109 132.395 127.741 131.779C127.372 131.163 126.942 130.486 126.389 129.747C125.774 129.07 125.098 128.331 124.299 127.592C123.5 126.914 122.64 126.36 121.841 125.867C121.042 125.436 120.304 125.067 119.628 124.882C118.952 124.636 118.46 124.513 118.03 124.389C117.661 124.451 117.415 124.451 117.415 124.451Z" fill="#263238"/>
<path d="M60.135 135.104C60.135 135.104 60.1965 134.981 60.1965 134.673C60.2579 134.365 60.3194 133.934 60.3809 133.442C60.5652 132.395 60.7496 130.855 61.0569 128.946C61.5486 125.128 62.2247 119.832 62.7163 113.982C63.2695 108.132 63.5768 102.836 63.7612 98.9566C63.8226 97.0476 63.8841 95.5081 63.9455 94.3996C63.9455 93.907 63.9455 93.4759 63.9455 93.168C63.9455 92.8601 63.9455 92.737 63.9455 92.737C63.9455 92.737 63.9455 92.8601 63.8841 93.168C63.8841 93.4759 63.8226 93.907 63.8226 94.3996C63.7611 95.5081 63.6997 97.0476 63.5768 98.9566C63.3309 102.775 62.9622 108.071 62.4705 113.921C61.9174 119.771 61.3642 125.067 60.8725 128.885C60.6267 130.794 60.4423 132.333 60.3194 133.38C60.2579 133.873 60.1965 134.304 60.1965 134.612C60.135 134.92 60.135 135.104 60.135 135.104Z" fill="#263238"/>
<path d="M45.4461 128.454C45.4461 128.454 45.569 128.331 45.8149 128.023C46.0607 127.776 46.3066 127.345 46.6139 126.791C47.2285 125.744 47.966 124.143 48.3962 122.296C48.8264 120.448 48.8879 118.724 48.765 117.431C48.7035 116.815 48.642 116.322 48.5806 115.953C48.5191 115.583 48.4577 115.399 48.4577 115.46C48.3962 115.46 48.5191 116.199 48.5806 117.431C48.642 118.662 48.5191 120.387 48.0889 122.173C47.6587 124.02 46.9826 125.559 46.4295 126.668C45.8149 127.838 45.3847 128.454 45.4461 128.454Z" fill="#263238"/>
<path d="M117.723 101.543C117.723 101.543 117.784 101.543 117.969 101.605C118.092 101.605 118.337 101.666 118.645 101.666C119.198 101.728 120.058 101.666 121.103 101.481C122.148 101.297 123.316 100.927 124.606 100.373C125.897 99.8187 127.249 99.1413 128.663 98.4639C130.076 97.7866 131.428 97.1708 132.78 96.7397C134.071 96.3086 135.3 96.0623 136.284 96.0623C138.373 95.9391 139.541 96.4934 139.602 96.4318C139.602 96.4318 139.541 96.3702 139.418 96.3086C139.295 96.247 139.049 96.1855 138.803 96.1239C138.25 95.9391 137.39 95.816 136.345 95.816C135.3 95.816 134.071 96.0623 132.719 96.4318C131.367 96.8628 130.015 97.4171 128.601 98.156C127.188 98.8334 125.835 99.5724 124.606 100.065C123.377 100.619 122.209 100.989 121.165 101.235C119.075 101.728 117.723 101.481 117.723 101.543Z" fill="#FAFAFA"/>
<path d="M113.764 100.863C111.756 100.521 110.142 100.161 110.16 100.061C110.177 99.9602 111.818 100.156 113.826 100.499C115.833 100.842 117.447 101.201 117.43 101.301C117.413 101.402 115.772 101.206 113.764 100.863Z" fill="#FAFAFA"/>
<path d="M118.03 113.305C118.03 113.305 118.337 113.49 118.952 113.674C119.567 113.921 120.366 114.229 121.472 114.537C123.623 115.214 126.573 116.076 129.953 116.63C131.613 116.938 133.272 117.123 134.747 117.308C136.222 117.492 137.574 117.554 138.681 117.431C139.787 117.308 140.709 117 141.262 116.692C141.569 116.569 141.754 116.384 141.877 116.322C141.999 116.199 142.061 116.138 142.061 116.138C142.061 116.138 141.754 116.322 141.2 116.569C140.647 116.815 139.787 117.123 138.681 117.184C137.574 117.308 136.284 117.184 134.809 117C133.334 116.815 131.736 116.63 130.076 116.322C126.696 115.707 123.746 114.968 121.595 114.29C120.55 113.982 119.69 113.674 119.075 113.49C118.337 113.366 118.03 113.243 118.03 113.305Z" fill="#FAFAFA"/>
<path d="M113.662 116.758C111.796 116.727 110.284 116.619 110.286 116.517C110.287 116.415 111.802 116.358 113.669 116.389C115.535 116.42 117.047 116.528 117.045 116.63C117.044 116.732 115.529 116.789 113.662 116.758Z" fill="#FAFAFA"/>
<path d="M141.938 144.588C141.938 144.588 141.938 144.465 141.876 144.28C141.815 144.034 141.754 143.726 141.631 143.356C141.569 143.171 141.508 142.925 141.446 142.679C141.385 142.432 141.262 142.186 141.139 141.878C140.955 141.324 140.709 140.708 140.401 140.031C140.217 139.723 140.094 139.353 139.91 138.984C139.725 138.614 139.48 138.245 139.295 137.876C138.865 137.075 138.312 136.336 137.759 135.535C136.591 133.934 135.177 132.333 133.457 130.794C131.736 129.316 129.892 128.084 128.171 127.16C127.311 126.729 126.45 126.298 125.651 125.99C125.221 125.806 124.852 125.683 124.483 125.559C124.115 125.436 123.746 125.313 123.377 125.19C122.701 124.944 122.025 124.82 121.41 124.697C121.103 124.636 120.857 124.574 120.611 124.513C120.366 124.451 120.12 124.451 119.935 124.389C119.567 124.328 119.259 124.328 119.013 124.266C118.768 124.266 118.706 124.266 118.706 124.266C118.706 124.266 118.829 124.328 119.013 124.328C119.259 124.389 119.567 124.451 119.935 124.513C120.12 124.574 120.366 124.574 120.611 124.636C120.857 124.697 121.103 124.759 121.41 124.82C121.964 124.944 122.64 125.128 123.316 125.375C123.684 125.498 124.053 125.621 124.422 125.744C124.791 125.867 125.159 126.052 125.59 126.237C126.389 126.545 127.188 126.976 128.11 127.407C129.83 128.331 131.613 129.562 133.272 131.04C134.932 132.518 136.407 134.119 137.574 135.72C138.127 136.521 138.681 137.26 139.111 138.06C139.357 138.43 139.541 138.799 139.725 139.169C139.91 139.538 140.094 139.846 140.217 140.216C140.586 140.893 140.77 141.509 141.016 142.063C141.139 142.309 141.262 142.556 141.323 142.802C141.385 143.048 141.446 143.233 141.508 143.479C141.631 143.849 141.754 144.157 141.815 144.403C141.876 144.465 141.938 144.588 141.938 144.588Z" fill="#FAFAFA"/>
<path d="M111.147 125.683C111.085 125.744 112.499 126.606 113.666 128.885C114.281 129.993 114.773 131.41 115.08 133.072C115.387 134.735 115.51 136.582 115.633 138.491C115.756 140.4 115.879 142.309 116.248 143.972C116.616 145.635 117.17 147.051 117.784 148.16C118.399 149.268 119.136 150.069 119.628 150.561C119.874 150.807 120.12 150.992 120.304 151.054C120.488 151.177 120.55 151.239 120.55 151.177C120.611 151.115 119.198 150.253 117.969 148.036C117.354 146.928 116.862 145.512 116.494 143.849C116.186 142.186 116.002 140.4 115.879 138.43C115.756 136.521 115.633 134.612 115.264 132.949C114.896 131.286 114.404 129.87 113.789 128.7C113.175 127.592 112.499 126.791 111.946 126.298C111.7 126.052 111.454 125.867 111.331 125.806C111.208 125.683 111.147 125.683 111.147 125.683Z" fill="#FAFAFA"/>
<path d="M100.088 139.701C99.8745 133.174 99.784 127.881 99.8858 127.877C99.9876 127.874 100.243 133.162 100.457 139.689C100.67 146.215 100.76 151.509 100.659 151.512C100.557 151.516 100.301 146.228 100.088 139.701Z" fill="#FAFAFA"/>
<path d="M83.9814 150.623C83.9814 150.623 84.1043 150.376 84.2272 149.884C84.2887 149.637 84.4116 149.33 84.4731 148.96C84.5345 148.591 84.6575 148.16 84.7189 147.728C84.9033 146.805 85.0262 145.696 85.0262 144.465C85.0262 143.233 84.9648 141.878 84.7804 140.4C84.5345 138.984 84.2272 137.629 83.797 136.459C83.3668 135.289 82.9366 134.242 82.5064 133.442C82.322 133.011 82.0761 132.641 81.8918 132.333C81.7074 132.025 81.523 131.718 81.4001 131.533C81.0928 131.102 80.9084 130.855 80.9084 130.855C80.847 130.917 81.523 131.841 82.322 133.503C82.7522 134.365 83.121 135.351 83.5512 136.521C83.9199 137.691 84.2272 138.984 84.4731 140.4C84.6575 141.817 84.7804 143.172 84.7804 144.403C84.7804 145.635 84.6575 146.743 84.5345 147.667C84.2272 149.514 83.9199 150.623 83.9814 150.623Z" fill="#FAFAFA"/>
<path d="M112.314 82.5761C112.314 82.6377 113.298 82.2066 114.896 81.714C116.494 81.2213 118.768 80.6671 121.287 80.4208C123.807 80.1745 126.143 80.3592 127.802 80.6055C129.462 80.8519 130.445 81.0982 130.506 81.0366C130.506 81.0366 130.261 80.9134 129.83 80.7903C129.4 80.6671 128.724 80.4824 127.864 80.3592C126.204 80.0513 123.869 79.8666 121.287 80.1129C118.706 80.3592 116.432 80.9134 114.834 81.5292C114.035 81.8372 113.421 82.0835 112.99 82.2682C112.499 82.3914 112.253 82.5145 112.314 82.5761Z" fill="#FAFAFA"/>
<path d="M63.7611 108.44C63.7611 108.502 64.6216 108.44 66.0351 108.378C67.4487 108.317 69.354 108.255 71.5051 108.194C73.6561 108.132 75.6229 108.132 76.975 108.132C78.3886 108.132 79.249 108.071 79.249 108.071C79.249 108.071 79.0032 108.009 78.6344 108.009C78.2656 108.009 77.651 107.947 76.975 107.947C75.5614 107.886 73.5947 107.886 71.4436 107.947C69.2925 108.009 67.3258 108.132 65.9737 108.255C65.2976 108.317 64.683 108.378 64.3143 108.44C63.9455 108.378 63.7611 108.44 63.7611 108.44Z" fill="#FAFAFA"/>
<path d="M51.5921 106.162C51.5921 106.223 52.3911 106.469 53.5588 107.085C54.7265 107.701 56.3245 108.625 57.861 109.98C59.3975 111.334 60.5038 112.812 61.2413 113.921C61.9788 115.029 62.3475 115.83 62.3475 115.768C62.3475 115.768 62.2861 115.583 62.1632 115.214C62.0402 114.844 61.7944 114.352 61.4257 113.798C60.7496 112.628 59.6433 111.088 58.0454 109.733C56.5089 108.378 54.8495 107.393 53.6203 106.839C53.0057 106.593 52.514 106.346 52.1452 106.285C51.8379 106.162 51.5921 106.1 51.5921 106.162Z" fill="#FAFAFA"/>
<path d="M57.6152 86.3942C57.6152 86.4557 58.8444 86.2094 60.7496 86.8252C61.6715 87.1331 62.7163 87.6258 63.8841 88.2416C65.0518 88.8574 66.3424 89.5348 67.756 89.9658C70.6446 90.8895 73.5332 90.828 75.4385 90.4585C76.4218 90.2737 77.1594 90.0274 77.7125 89.8427C78.2042 89.6579 78.5115 89.5348 78.5115 89.4732C78.5115 89.4116 77.3437 89.9042 75.4385 90.2121C73.5332 90.52 70.7061 90.5816 67.8789 89.6579C66.4654 89.2269 65.1747 88.5495 64.007 87.9337C62.8392 87.3179 61.733 86.8252 60.8111 86.5789C59.8277 86.271 59.0287 86.2094 58.4756 86.271C58.1683 86.271 57.9839 86.3326 57.861 86.3326C57.6766 86.3941 57.6152 86.3942 57.6152 86.3942Z" fill="#FAFAFA"/>
<path d="M60.6266 127.653C60.6266 127.653 60.8724 127.776 61.3641 127.961C61.61 128.084 61.9173 128.207 62.2246 128.269C62.5933 128.392 62.9621 128.515 63.3923 128.638C64.2527 128.885 65.359 129.131 66.5267 129.316C67.6945 129.439 69.0466 129.562 70.4602 129.501C71.8737 129.439 73.1644 129.254 74.3321 129.07C75.4999 128.823 76.5447 128.515 77.4051 128.207C77.8353 128.084 78.2041 127.899 78.5729 127.776C78.8801 127.653 79.1874 127.53 79.4333 127.407C79.8635 127.161 80.1093 127.037 80.1093 127.037C80.1093 126.976 79.0645 127.468 77.3437 128.023C76.4832 128.331 75.4384 128.577 74.2707 128.762C73.1029 128.946 71.8123 129.131 70.3987 129.193C69.0466 129.254 67.6945 129.131 66.5267 129.008C65.359 128.885 64.3142 128.638 63.3923 128.454C61.7329 128.023 60.6881 127.592 60.6266 127.653Z" fill="#FAFAFA"/>
<path d="M46.5524 145.881C46.5524 145.881 46.6138 145.819 46.7982 145.696C46.9211 145.573 47.167 145.388 47.4128 145.081C47.9659 144.526 48.642 143.664 49.3795 142.494C50.7931 140.154 52.0223 136.398 52.1452 132.21C52.2067 127.961 51.4077 124.266 50.7316 121.557C50.4243 120.202 50.117 119.155 49.8712 118.416C49.7483 118.108 49.6868 117.8 49.6254 117.554C49.5639 117.369 49.5024 117.246 49.5024 117.246C49.5024 117.246 49.5024 117.369 49.5639 117.554C49.6254 117.8 49.6868 118.047 49.7483 118.416C49.9327 119.217 50.1785 120.264 50.4858 121.557C51.1004 124.205 51.8379 127.961 51.7765 132.149C51.715 136.336 50.5473 140.031 49.1337 142.371C48.4576 143.541 47.7816 144.465 47.2899 145.019C46.7982 145.573 46.4909 145.881 46.5524 145.881Z" fill="#FAFAFA"/>
<path d="M24.181 125.005C24.2425 125.067 25.2259 123.958 27.4384 123.158C28.5447 122.788 29.8353 122.419 31.3718 122.111C32.8469 121.803 34.5678 121.557 36.2886 121.002C39.7304 119.894 42.4346 117.923 44.094 116.322C44.9545 115.522 45.5691 114.783 45.9378 114.229C46.1222 113.982 46.2451 113.736 46.368 113.613C46.491 113.49 46.491 113.366 46.491 113.366C46.491 113.366 46.2451 113.613 45.8149 114.105C45.3847 114.598 44.7701 115.275 43.9097 116.076C42.2502 117.677 39.546 119.525 36.1657 120.633C34.5063 121.187 32.8469 121.434 31.3104 121.803C29.7739 122.111 28.4218 122.48 27.377 122.911C26.2707 123.343 25.4717 123.835 24.98 124.266C24.7342 124.451 24.5498 124.636 24.4269 124.759C24.2425 124.944 24.181 125.005 24.181 125.005Z" fill="#FAFAFA"/>
<path d="M17.1131 104.437C17.1131 104.437 17.3589 104.252 17.7891 103.883C17.9735 103.698 18.2193 103.452 18.5266 103.206C18.8339 102.959 19.1412 102.651 19.5714 102.343C20.3704 101.728 21.2923 101.05 22.3986 100.311C23.5049 99.634 24.7955 98.9566 26.2091 98.3408C27.6227 97.725 28.9748 97.2939 30.2655 96.986C31.5561 96.6781 32.7238 96.4318 33.7072 96.3086C34.1989 96.247 34.6291 96.1854 35.0593 96.1854C35.4281 96.1239 35.7968 96.1239 36.0427 96.1239C36.5958 96.0623 36.9031 96.0623 36.9031 96.0623C36.9031 96.0623 36.5958 96.0007 36.0427 96.0007C35.7354 96.0007 35.4281 96.0007 34.9979 96.0007C34.6291 96.0007 34.1374 96.0623 33.6457 96.1239C32.6624 96.247 31.4332 96.4318 30.1425 96.7397C28.8519 97.0476 27.4383 97.5402 26.0247 98.0944C24.6111 98.7102 23.3205 99.3876 22.2142 100.127C21.1079 100.866 20.1246 101.543 19.3871 102.22C19.0183 102.528 18.6495 102.836 18.4037 103.144C18.0964 103.39 17.8506 103.637 17.6662 103.883C17.2974 104.191 17.1131 104.437 17.1131 104.437Z" fill="#FAFAFA"/>
<path d="M70.8904 76.1718C70.8904 76.2333 71.3206 76.4181 72.0581 76.726C72.7956 77.0339 73.8405 77.3418 75.0696 77.6497C76.2374 77.9576 77.3437 78.0808 78.1426 78.1423C78.9416 78.2039 79.4333 78.2039 79.4333 78.1423C79.4333 78.0192 77.4666 77.896 75.1311 77.3418C72.7956 76.7876 70.9518 76.1102 70.8904 76.1718Z" fill="#FAFAFA"/>
<path d="M49.1336 162.939C48.7649 164.109 49.8097 165.279 51.0389 165.094C51.7149 165.033 52.2681 164.54 52.4525 163.863L52.9441 161.954H52.8827C52.5754 163.124 53.6817 164.17 54.8494 164.047C55.6484 164.047 56.3244 162.877 56.5703 162.261C57.9224 162.446 59.1516 161.646 59.7047 160.784L63.3308 155.118L70.03 150.192L65.9736 135.72L51.592 145.019C51.0389 145.45 50.916 145.635 50.0555 146.497L40.7751 155.057C41.8199 155.672 42.7418 155.611 44.1554 155.057C45.6304 154.502 52.0222 150.13 52.0222 150.13L49.1336 162.939Z" fill="#FFBE9D"/>
<path d="M61.4256 150.992C61.4256 150.992 61.2412 151.054 60.9954 151.239C60.8724 151.362 60.6881 151.423 60.5037 151.546C60.3193 151.67 60.0735 151.854 59.8891 152.039C59.7047 152.285 59.5203 152.532 59.3974 152.901C59.2745 153.209 59.1516 153.579 59.0286 153.887C58.7828 154.626 58.537 155.364 58.2297 156.227C57.6765 157.889 57.1849 159.367 56.8776 160.476C56.5703 161.584 56.3859 162.261 56.3859 162.261C56.4473 162.261 56.6932 161.646 57.0619 160.537C57.4307 159.49 57.9838 158.012 58.537 156.35C58.7828 155.549 59.0901 154.749 59.2745 154.01C59.3974 153.64 59.5203 153.332 59.5818 152.963C59.7047 152.655 59.8276 152.409 60.012 152.162C60.1964 151.916 60.3808 151.793 60.5651 151.67C60.7495 151.546 60.8724 151.423 60.9954 151.3C61.3027 151.177 61.4256 151.054 61.4256 150.992Z" fill="#EB996E"/>
<path d="M52.7597 162.261C52.7597 162.261 52.8826 162.077 52.9441 161.646C53.067 161.215 53.2514 160.66 53.4358 159.983C53.8045 158.567 54.3577 156.658 55.0337 154.564C55.7098 152.47 56.3858 150.561 57.2463 149.453C57.6765 148.899 58.1067 148.467 58.414 148.283C58.7213 148.098 58.9671 148.036 58.9671 147.975C58.9671 147.975 58.9057 147.975 58.7828 147.975C58.6598 147.975 58.5369 148.036 58.3525 148.16C57.9838 148.344 57.4921 148.714 57.0619 149.33C56.14 150.5 55.4025 152.409 54.7264 154.502C54.0504 156.596 53.5587 158.567 53.2514 159.983C53.067 160.66 52.9441 161.276 52.8826 161.646C52.7597 162.015 52.7597 162.261 52.7597 162.261Z" fill="#EB996E"/>
<path d="M49.0722 163.124C49.0722 163.124 49.1951 162.877 49.318 162.508C49.5024 162.015 49.6868 161.399 49.8712 160.722C50.3628 159.182 50.9774 157.089 51.6535 154.749C52.3296 152.47 52.8827 150.376 53.3129 148.775C53.5588 148.036 53.9275 147.544 54.2963 147.297C54.665 147.051 54.9109 146.989 54.9109 146.989C54.9109 146.989 54.8494 146.989 54.7265 146.989C54.6036 146.989 54.4192 147.051 54.2348 147.174C53.866 147.421 53.3744 147.913 53.1285 148.714C52.6369 150.253 52.0223 152.347 51.3462 154.687C50.6701 157.027 50.0555 159.121 49.6868 160.66C49.5024 161.399 49.318 162.015 49.1951 162.508C49.0722 162.877 49.0107 163.124 49.0722 163.124Z" fill="#EB996E"/>
</svg>
