<svg width="32" height="33" viewBox="0 0 32 33" fill="none" xmlns="http://www.w3.org/2000/svg">
<g clip-path="url(#clip0)">
<path d="M9.45451 0.0103149C11.9801 0.0103149 14.3551 0.994211 16.1392 2.78019L29.2301 15.8742C31.0157 17.6608 32 20.0357 32 22.5612C32 27.7755 27.7585 32.0181 22.5454 32.0181C20.0184 32.0181 17.6449 31.0342 15.8607 29.2482L2.76982 16.1548C0.98291 14.3682 -6.86646e-05 11.9933 -6.86646e-05 9.46709C0 4.25279 4.24146 0.0103149 9.45451 0.0103149ZM21.7812 14.5962L26.1449 18.9602C27.1065 19.9221 27.6364 21.2015 27.6364 22.5612C27.6364 22.9633 27.9617 23.2887 28.3637 23.2887C28.7657 23.2887 29.091 22.9633 29.091 22.5612C29.091 20.8122 28.4106 19.1684 27.1733 17.9316L22.8097 13.5676C22.5256 13.2834 22.0654 13.2834 21.7813 13.5676C21.4971 13.8517 21.4971 14.312 21.7812 14.5962ZM4.82666 14.0975L10.8578 20.1294L20.1137 10.8703L14.0824 4.83745C12.8466 3.60068 11.2031 2.92006 9.45451 2.92006C5.8451 2.92006 2.90905 5.85688 2.90905 9.46709C2.90905 11.2161 3.58944 12.8607 4.82666 14.0975Z" fill="black"/>
</g>
<defs>
<clipPath id="clip0">
<rect width="32" height="32.0077" fill="white" transform="matrix(-1 0 0 1 32 0.0103149)"/>
</clipPath>
</defs>
</svg>
