<svg width="85" height="72" viewBox="0 0 85 72" fill="none" xmlns="http://www.w3.org/2000/svg">
<path d="M28.8973 59.9516C28.8973 59.9516 73.5599 63.8335 77.7589 55.3697C81.958 46.9696 77.25 8.2146 70.7605 4.14182C64.2711 0.0690403 14.2643 -2.98554 7.13862 4.9691C0.01297 12.9874 5.0391 52.5061 10.8287 58.5516C16.5547 64.5971 37.2954 71.0245 37.2954 71.0245L28.8973 59.9516Z" fill="#FFD400"/>
<path d="M81.3854 35.8967C81.3854 35.8967 83.4213 55.8152 78.6497 58.1697C78.6497 58.1697 83.6122 57.2788 83.9939 52.2515C84.3757 47.2241 81.3854 35.8967 81.3854 35.8967Z" fill="#FFD400"/>
<path d="M0.967277 20.5602C0.967277 20.5602 -0.496027 4.14186 5.99341 1.40546C5.99341 1.40546 1.34901 0.769091 0.331058 6.05098C-0.686893 11.3329 0.967277 20.5602 0.967277 20.5602Z" fill="#FFD400"/>
</svg>
